<?xml version="1.0" encoding="UTF-8"?>
<svg xmlns="http://www.w3.org/2000/svg" xmlns:xlink="http://www.w3.org/1999/xlink" width="175px" height="56px" viewBox="0 0 175 56" version="1.1">
<g id="surface1">
<path style=" stroke:none;fill-rule:nonzero;fill:rgb(99.607843%,100%,99.607843%);fill-opacity:1;" d="M 110.746094 56.117188 C 73.835938 56.117188 36.984375 56.117188 0.125 56.117188 C 0.125 37.457031 0.125 18.796875 0.125 0.128906 C 58.4375 0.128906 116.753906 0.128906 175.09375 0.128906 C 175.09375 18.785156 175.09375 37.449219 175.09375 56.117188 C 153.675781 56.117188 132.242188 56.117188 110.746094 56.117188 M 59.25 31.257812 C 57.421875 31.257812 55.59375 31.261719 53.761719 31.253906 C 53.15625 31.25 52.644531 31.417969 52.328125 31.960938 C 51.742188 32.980469 52.429688 34.179688 53.632812 34.203125 C 55.035156 34.230469 56.433594 34.214844 57.835938 34.207031 C 58.167969 34.203125 58.417969 34.203125 58.503906 34.644531 C 58.605469 35.152344 58.820312 35.636719 58.988281 36.132812 C 60.226562 39.800781 61.46875 43.46875 62.707031 47.140625 C 62.898438 47.699219 63.0625 48.265625 63.246094 48.859375 C 45.910156 48.859375 28.660156 48.859375 11.371094 48.859375 C 11.40625 48.691406 11.417969 48.578125 11.453125 48.472656 C 12.238281 46.148438 13.027344 43.828125 13.8125 41.503906 C 14.578125 39.222656 15.347656 36.949219 16.082031 34.660156 C 16.207031 34.265625 16.390625 34.199219 16.742188 34.203125 C 18.125 34.21875 19.507812 34.222656 20.886719 34.207031 C 21.800781 34.195312 22.476562 33.558594 22.480469 32.75 C 22.484375 31.90625 21.867188 31.273438 20.953125 31.265625 C 19.046875 31.246094 17.136719 31.242188 15.230469 31.265625 C 14.304688 31.277344 13.910156 31.636719 13.625 32.515625 C 13.011719 34.410156 12.390625 36.300781 11.761719 38.1875 C 10.46875 42.066406 9.164062 45.945312 7.871094 49.824219 C 7.601562 50.632812 7.953125 51.492188 8.675781 51.722656 C 9.039062 51.835938 9.441406 51.863281 9.824219 51.863281 C 28.140625 51.871094 46.457031 51.871094 64.777344 51.867188 C 65.046875 51.867188 65.320312 51.851562 65.585938 51.796875 C 66.574219 51.597656 67.039062 50.785156 66.722656 49.816406 C 66.144531 48.058594 65.566406 46.304688 64.980469 44.550781 C 63.660156 40.59375 62.3125 36.648438 61.023438 32.683594 C 60.738281 31.808594 60.296875 31.285156 59.25 31.257812 M 37.214844 43.050781 C 38.195312 43.132812 38.972656 42.617188 39.742188 42.132812 C 42.9375 40.105469 45.621094 37.539062 47.738281 34.390625 C 48.929688 32.621094 49.921875 30.734375 50.5625 28.707031 C 51.230469 26.59375 51.75 24.433594 51.976562 22.207031 C 52.269531 19.289062 52.183594 16.410156 51.015625 13.691406 C 48.722656 8.359375 44.644531 5.265625 38.929688 4.550781 C 35.707031 4.148438 32.589844 4.777344 29.75 6.496094 C 25.5625 9.03125 23.089844 12.75 22.542969 17.59375 C 22.101562 21.488281 22.867188 25.3125 24.097656 29.003906 C 24.847656 31.261719 26.007812 33.347656 27.417969 35.277344 C 29.242188 37.773438 31.449219 39.875 33.96875 41.636719 C 34.917969 42.304688 35.886719 42.976562 37.214844 43.050781 M 73.433594 27.296875 C 73.433594 30.671875 73.433594 34.050781 73.433594 37.332031 C 76.164062 37.332031 78.835938 37.472656 81.488281 37.300781 C 84.921875 37.074219 87.289062 34.90625 88.042969 31.601562 C 88.402344 30.023438 88.402344 28.425781 88.210938 26.820312 C 87.777344 23.128906 85.414062 20.59375 81.742188 20.21875 C 79.46875 19.984375 77.160156 20.082031 74.863281 20.035156 C 74.402344 20.023438 73.941406 20.03125 73.433594 20.03125 C 73.433594 22.453125 73.433594 24.816406 73.433594 27.296875 M 164.207031 34.503906 C 162.613281 29.875 161.015625 25.246094 159.445312 20.609375 C 159.285156 20.136719 159.0625 19.992188 158.578125 20.007812 C 157.507812 20.046875 156.4375 20.039062 155.367188 20.011719 C 154.949219 20 154.769531 20.132812 154.632812 20.539062 C 153.292969 24.492188 151.929688 28.4375 150.570312 32.382812 C 149.996094 34.058594 149.417969 35.730469 148.828125 37.449219 C 149.84375 37.449219 150.796875 37.417969 151.75 37.464844 C 152.226562 37.488281 152.425781 37.328125 152.558594 36.878906 C 152.898438 35.726562 153.289062 34.589844 153.660156 33.445312 C 155.804688 33.445312 157.886719 33.4375 159.96875 33.460938 C 160.121094 33.464844 160.355469 33.683594 160.414062 33.847656 C 160.789062 34.914062 161.113281 36 161.484375 37.066406 C 161.539062 37.222656 161.742188 37.429688 161.882812 37.433594 C 162.96875 37.464844 164.058594 37.449219 165.207031 37.449219 C 164.875 36.464844 164.554688 35.527344 164.207031 34.503906 M 92.175781 35.386719 C 94.003906 37.664062 96.46875 37.957031 99.105469 37.542969 C 100.851562 37.269531 102.0625 36.207031 102.863281 34.601562 C 102.15625 34.148438 101.515625 33.710938 100.839844 33.328125 C 100.71875 33.257812 100.390625 33.335938 100.304688 33.457031 C 99.273438 34.859375 97.46875 35.335938 95.894531 34.585938 C 94.859375 34.089844 94.164062 32.78125 94.339844 31.613281 C 94.527344 31.613281 94.71875 31.613281 94.910156 31.613281 C 97.324219 31.613281 99.738281 31.613281 102.152344 31.613281 C 102.90625 31.613281 102.921875 31.613281 102.9375 30.832031 C 102.949219 30.1875 102.957031 29.539062 102.910156 28.894531 C 102.734375 26.414062 101.3125 24.710938 98.964844 24.238281 C 98.210938 24.089844 97.414062 24.039062 96.648438 24.089844 C 94.394531 24.25 92.558594 25.230469 91.632812 27.359375 C 90.464844 30.054688 90.546875 32.753906 92.175781 35.386719 M 145.269531 37.453125 C 145.785156 37.453125 146.304688 37.453125 146.832031 37.453125 C 146.832031 34.335938 146.867188 31.285156 146.8125 28.238281 C 146.789062 26.945312 146.414062 25.71875 145.324219 24.867188 C 143.433594 23.390625 140.109375 23.914062 138.75 25.886719 C 138.652344 26.03125 138.535156 26.167969 138.429688 26.304688 C 138.378906 26.289062 138.324219 26.273438 138.273438 26.261719 C 138.273438 25.617188 138.273438 24.972656 138.273438 24.34375 C 137.15625 24.34375 136.136719 24.34375 135.128906 24.34375 C 135.128906 28.734375 135.128906 33.082031 135.128906 37.410156 C 136.234375 37.410156 137.292969 37.410156 138.382812 37.410156 C 138.382812 37.136719 138.382812 36.90625 138.382812 36.671875 C 138.394531 34.421875 138.382812 32.171875 138.4375 29.925781 C 138.449219 29.394531 138.601562 28.835938 138.8125 28.34375 C 139.328125 27.167969 140.660156 26.609375 142.074219 26.90625 C 143.09375 27.121094 143.550781 27.851562 143.566406 29.296875 C 143.570312 29.472656 143.566406 29.652344 143.566406 29.828125 C 143.566406 32.195312 143.566406 34.5625 143.570312 36.929688 C 143.570312 37.097656 143.585938 37.261719 143.597656 37.453125 C 144.144531 37.453125 144.648438 37.453125 145.269531 37.453125 M 105.410156 26.40625 C 104.515625 28.714844 105.371094 30.671875 107.664062 31.558594 C 107.953125 31.667969 108.253906 31.753906 108.554688 31.832031 C 109.34375 32.039062 110.144531 32.207031 110.921875 32.445312 C 111.710938 32.683594 112.082031 33.199219 112.019531 33.832031 C 111.957031 34.488281 111.453125 34.910156 110.621094 34.992188 C 109.109375 35.140625 107.816406 34.699219 106.820312 33.515625 C 106.59375 33.246094 106.425781 33.183594 106.167969 33.472656 C 105.640625 34.070312 105.089844 34.648438 104.457031 35.335938 C 104.949219 35.78125 105.378906 36.253906 105.890625 36.617188 C 106.800781 37.257812 107.863281 37.527344 108.957031 37.636719 C 110.445312 37.789062 111.921875 37.730469 113.261719 36.957031 C 114.730469 36.105469 115.3125 34.78125 115.199219 33.113281 C 115.097656 31.570312 114.25 30.59375 112.871094 30.046875 C 112.382812 29.855469 111.875 29.71875 111.371094 29.585938 C 110.582031 29.375 109.777344 29.226562 109 28.980469 C 108.355469 28.773438 108.109375 28.339844 108.160156 27.738281 C 108.214844 27.128906 108.628906 26.867188 109.160156 26.757812 C 110.449219 26.496094 111.625 26.695312 112.636719 27.621094 C 112.753906 27.726562 113.105469 27.769531 113.195312 27.683594 C 113.761719 27.125 114.285156 26.523438 114.945312 25.804688 C 114.207031 25.34375 113.578125 24.835938 112.867188 24.535156 C 111.429688 23.921875 109.90625 23.917969 108.394531 24.238281 C 107.132812 24.503906 106.070312 25.113281 105.410156 26.40625 M 124.578125 24.296875 C 123.625 24.296875 122.675781 24.296875 121.679688 24.296875 C 121.679688 23.253906 121.679688 22.265625 121.679688 21.199219 C 120.554688 21.382812 119.488281 21.554688 118.375 21.734375 C 118.375 22.589844 118.375 23.421875 118.375 24.308594 C 117.691406 24.308594 117.058594 24.308594 116.417969 24.308594 C 116.417969 25.195312 116.417969 26.027344 116.417969 26.917969 C 117.078125 26.917969 117.710938 26.917969 118.382812 26.917969 C 118.382812 27.207031 118.378906 27.441406 118.382812 27.671875 C 118.402344 29.804688 118.390625 31.9375 118.464844 34.066406 C 118.5 35.15625 118.941406 36.121094 119.8125 36.828125 C 121.171875 37.933594 124.207031 37.996094 125.609375 36.953125 C 125.714844 36.875 125.839844 36.6875 125.8125 36.597656 C 125.566406 35.824219 125.289062 35.0625 125.007812 34.261719 C 124.636719 34.421875 124.347656 34.574219 124.039062 34.671875 C 122.625 35.117188 121.710938 34.492188 121.691406 33.015625 C 121.660156 31.039062 121.683594 29.0625 121.6875 27.085938 C 121.6875 27.035156 121.730469 26.984375 121.777344 26.886719 C 122.964844 26.886719 124.160156 26.886719 125.351562 26.886719 C 125.351562 25.996094 125.351562 25.160156 125.351562 24.296875 C 125.113281 24.296875 124.902344 24.296875 124.578125 24.296875 M 171.15625 27.765625 C 171.15625 25.195312 171.15625 22.625 171.15625 20.074219 C 169.96875 20.074219 168.871094 20.074219 167.765625 20.074219 C 167.765625 25.875 167.765625 31.632812 167.765625 37.414062 C 168.902344 37.414062 170.015625 37.414062 171.15625 37.414062 C 171.15625 34.210938 171.15625 31.046875 171.15625 27.765625 M 131.332031 27.765625 C 131.332031 26.621094 131.332031 25.476562 131.332031 24.339844 C 130.199219 24.339844 129.136719 24.339844 128.085938 24.339844 C 128.085938 28.726562 128.085938 33.078125 128.085938 37.417969 C 129.183594 37.417969 130.246094 37.417969 131.332031 37.417969 C 131.332031 34.214844 131.332031 31.050781 131.332031 27.765625 M 130.335938 18.941406 C 129.035156 18.742188 128.152344 19.136719 127.808594 20.066406 C 127.425781 21.101562 127.898438 22.210938 128.878906 22.585938 C 129.964844 23.007812 131.179688 22.535156 131.578125 21.539062 C 132 20.476562 131.535156 19.449219 130.335938 18.941406 Z M 130.335938 18.941406 "/>
<path style=" stroke:none;fill-rule:nonzero;fill:rgb(6.27451%,76.078433%,35.294119%);fill-opacity:1;" d="M 59.304688 31.257812 C 60.296875 31.285156 60.738281 31.808594 61.023438 32.683594 C 62.3125 36.648438 63.660156 40.59375 64.980469 44.550781 C 65.566406 46.304688 66.144531 48.058594 66.722656 49.816406 C 67.039062 50.785156 66.574219 51.597656 65.585938 51.796875 C 65.320312 51.851562 65.046875 51.867188 64.777344 51.867188 C 46.457031 51.871094 28.140625 51.871094 9.824219 51.863281 C 9.441406 51.863281 9.039062 51.835938 8.675781 51.722656 C 7.953125 51.492188 7.601562 50.632812 7.871094 49.824219 C 9.164062 45.945312 10.46875 42.066406 11.761719 38.1875 C 12.390625 36.300781 13.011719 34.410156 13.625 32.515625 C 13.910156 31.636719 14.304688 31.277344 15.230469 31.265625 C 17.136719 31.242188 19.046875 31.246094 20.953125 31.265625 C 21.867188 31.273438 22.484375 31.90625 22.480469 32.75 C 22.476562 33.558594 21.800781 34.195312 20.886719 34.207031 C 19.507812 34.222656 18.125 34.21875 16.742188 34.203125 C 16.390625 34.199219 16.207031 34.265625 16.082031 34.660156 C 15.347656 36.949219 14.578125 39.222656 13.8125 41.503906 C 13.027344 43.828125 12.238281 46.148438 11.453125 48.472656 C 11.417969 48.578125 11.40625 48.691406 11.371094 48.859375 C 28.660156 48.859375 45.910156 48.859375 63.246094 48.859375 C 63.0625 48.265625 62.898438 47.699219 62.707031 47.140625 C 61.46875 43.46875 60.226562 39.800781 58.988281 36.132812 C 58.820312 35.636719 58.605469 35.152344 58.503906 34.644531 C 58.417969 34.203125 58.167969 34.203125 57.835938 34.207031 C 56.433594 34.214844 55.035156 34.230469 53.632812 34.203125 C 52.429688 34.179688 51.742188 32.980469 52.328125 31.960938 C 52.644531 31.417969 53.15625 31.25 53.761719 31.253906 C 55.59375 31.261719 57.421875 31.257812 59.304688 31.257812 Z M 59.304688 31.257812 "/>
<path style=" stroke:none;fill-rule:nonzero;fill:rgb(6.27451%,76.078433%,35.294119%);fill-opacity:1;" d="M 37.164062 43.046875 C 35.886719 42.976562 34.917969 42.304688 33.96875 41.636719 C 31.449219 39.875 29.242188 37.773438 27.417969 35.277344 C 26.007812 33.347656 24.847656 31.261719 24.097656 29.003906 C 22.867188 25.3125 22.101562 21.488281 22.542969 17.59375 C 23.089844 12.75 25.5625 9.03125 29.75 6.496094 C 32.589844 4.777344 35.707031 4.148438 38.929688 4.550781 C 44.644531 5.265625 48.722656 8.359375 51.015625 13.691406 C 52.183594 16.410156 52.269531 19.289062 51.976562 22.207031 C 51.75 24.433594 51.230469 26.59375 50.5625 28.707031 C 49.921875 30.734375 48.929688 32.621094 47.738281 34.390625 C 45.621094 37.539062 42.9375 40.105469 39.742188 42.132812 C 38.972656 42.617188 38.195312 43.132812 37.164062 43.046875 M 28.246094 30.953125 C 30.265625 34.636719 33.039062 37.59375 36.613281 39.796875 C 37.058594 40.070312 37.40625 40.109375 37.828125 39.800781 C 38.679688 39.1875 39.585938 38.652344 40.398438 37.996094 C 43.5 35.5 45.898438 32.4375 47.351562 28.710938 C 48.1875 26.570312 48.808594 24.34375 49.015625 22.039062 C 49.191406 20.109375 49.300781 18.152344 48.753906 16.265625 C 47.441406 11.746094 44.566406 8.738281 39.929688 7.75 C 35.394531 6.785156 31.425781 7.957031 28.292969 11.511719 C 26.761719 13.25 25.75 15.269531 25.542969 17.585938 C 25.132812 22.265625 26.09375 26.695312 28.246094 30.953125 Z M 28.246094 30.953125 "/>
<path style=" stroke:none;fill-rule:nonzero;fill:rgb(0.784314%,0.784314%,0.784314%);fill-opacity:1;" d="M 73.433594 27.238281 C 73.433594 24.816406 73.433594 22.453125 73.433594 20.03125 C 73.941406 20.03125 74.402344 20.023438 74.863281 20.035156 C 77.160156 20.082031 79.46875 19.984375 81.742188 20.21875 C 85.414062 20.59375 87.777344 23.128906 88.210938 26.820312 C 88.402344 28.425781 88.402344 30.023438 88.042969 31.601562 C 87.289062 34.90625 84.921875 37.074219 81.488281 37.300781 C 78.835938 37.472656 76.164062 37.332031 73.433594 37.332031 C 73.433594 34.050781 73.433594 30.671875 73.433594 27.238281 M 76.859375 24.949219 C 76.859375 28.144531 76.859375 31.339844 76.859375 34.511719 C 78.070312 34.511719 79.199219 34.566406 80.324219 34.503906 C 82.691406 34.371094 84.132812 33.097656 84.609375 30.78125 C 84.898438 29.363281 84.882812 27.945312 84.578125 26.53125 C 84.171875 24.644531 83.050781 23.40625 81.132812 23.117188 C 79.742188 22.910156 78.324219 22.921875 76.859375 22.832031 C 76.859375 23.589844 76.859375 24.210938 76.859375 24.949219 Z M 76.859375 24.949219 "/>
<path style=" stroke:none;fill-rule:nonzero;fill:rgb(3.921569%,75.686276%,33.333334%);fill-opacity:1;" d="M 164.222656 34.546875 C 164.554688 35.527344 164.875 36.464844 165.207031 37.449219 C 164.058594 37.449219 162.96875 37.464844 161.882812 37.433594 C 161.742188 37.429688 161.539062 37.222656 161.484375 37.066406 C 161.113281 36 160.789062 34.914062 160.414062 33.847656 C 160.355469 33.683594 160.121094 33.464844 159.96875 33.460938 C 157.886719 33.4375 155.804688 33.445312 153.660156 33.445312 C 153.289062 34.589844 152.898438 35.726562 152.558594 36.878906 C 152.425781 37.328125 152.226562 37.488281 151.75 37.464844 C 150.796875 37.417969 149.84375 37.449219 148.828125 37.449219 C 149.417969 35.730469 149.996094 34.058594 150.570312 32.382812 C 151.929688 28.4375 153.292969 24.492188 154.632812 20.539062 C 154.769531 20.132812 154.949219 20 155.367188 20.011719 C 156.4375 20.039062 157.507812 20.046875 158.578125 20.007812 C 159.0625 19.992188 159.285156 20.136719 159.445312 20.609375 C 161.015625 25.246094 162.613281 29.875 164.222656 34.546875 M 158.871094 29.058594 C 158.332031 27.410156 157.796875 25.757812 157.242188 24.113281 C 157.191406 23.953125 157.042969 23.828125 156.9375 23.6875 C 156.847656 23.824219 156.726562 23.949219 156.675781 24.101562 C 156.019531 26.101562 155.371094 28.105469 154.726562 30.109375 C 154.6875 30.230469 154.679688 30.363281 154.65625 30.511719 C 156.226562 30.511719 157.757812 30.511719 159.335938 30.511719 C 159.179688 30.035156 159.035156 29.59375 158.871094 29.058594 Z M 158.871094 29.058594 "/>
<path style=" stroke:none;fill-rule:nonzero;fill:rgb(1.176471%,1.176471%,1.176471%);fill-opacity:1;" d="M 92.152344 35.351562 C 90.546875 32.753906 90.464844 30.054688 91.632812 27.359375 C 92.558594 25.230469 94.394531 24.25 96.648438 24.089844 C 97.414062 24.039062 98.210938 24.089844 98.964844 24.238281 C 101.3125 24.710938 102.734375 26.414062 102.910156 28.894531 C 102.957031 29.539062 102.949219 30.1875 102.9375 30.832031 C 102.921875 31.613281 102.90625 31.613281 102.152344 31.613281 C 99.738281 31.613281 97.324219 31.613281 94.910156 31.613281 C 94.71875 31.613281 94.527344 31.613281 94.339844 31.613281 C 94.164062 32.78125 94.859375 34.089844 95.894531 34.585938 C 97.46875 35.335938 99.273438 34.859375 100.304688 33.457031 C 100.390625 33.335938 100.71875 33.257812 100.839844 33.328125 C 101.515625 33.710938 102.15625 34.148438 102.863281 34.601562 C 102.0625 36.207031 100.851562 37.269531 99.105469 37.542969 C 96.46875 37.957031 94.003906 37.664062 92.152344 35.351562 M 96.722656 26.652344 C 95.28125 26.953125 94.488281 27.886719 94.363281 29.441406 C 96.175781 29.441406 97.988281 29.441406 99.796875 29.441406 C 99.746094 27.808594 99.179688 26.9375 97.988281 26.695312 C 97.613281 26.621094 97.214844 26.65625 96.722656 26.652344 Z M 96.722656 26.652344 "/>
<path style=" stroke:none;fill-rule:nonzero;fill:rgb(1.568628%,1.568628%,1.568628%);fill-opacity:1;" d="M 145.210938 37.453125 C 144.648438 37.453125 144.144531 37.453125 143.597656 37.453125 C 143.585938 37.261719 143.570312 37.097656 143.570312 36.929688 C 143.566406 34.5625 143.566406 32.195312 143.566406 29.828125 C 143.566406 29.652344 143.570312 29.472656 143.566406 29.296875 C 143.550781 27.851562 143.09375 27.121094 142.074219 26.90625 C 140.660156 26.609375 139.328125 27.167969 138.8125 28.34375 C 138.601562 28.835938 138.449219 29.394531 138.4375 29.925781 C 138.382812 32.171875 138.394531 34.421875 138.382812 36.671875 C 138.382812 36.90625 138.382812 37.136719 138.382812 37.410156 C 137.292969 37.410156 136.234375 37.410156 135.128906 37.410156 C 135.128906 33.082031 135.128906 28.734375 135.128906 24.34375 C 136.136719 24.34375 137.15625 24.34375 138.273438 24.34375 C 138.273438 24.972656 138.273438 25.617188 138.273438 26.261719 C 138.324219 26.273438 138.378906 26.289062 138.429688 26.304688 C 138.535156 26.167969 138.652344 26.03125 138.75 25.886719 C 140.109375 23.914062 143.433594 23.390625 145.324219 24.867188 C 146.414062 25.71875 146.789062 26.945312 146.8125 28.238281 C 146.867188 31.285156 146.832031 34.335938 146.832031 37.453125 C 146.304688 37.453125 145.785156 37.453125 145.210938 37.453125 Z M 145.210938 37.453125 "/>
<path style=" stroke:none;fill-rule:nonzero;fill:rgb(1.176471%,1.176471%,1.176471%);fill-opacity:1;" d="M 105.433594 26.367188 C 106.070312 25.113281 107.132812 24.503906 108.394531 24.238281 C 109.90625 23.917969 111.429688 23.921875 112.867188 24.535156 C 113.578125 24.835938 114.207031 25.34375 114.945312 25.804688 C 114.285156 26.523438 113.761719 27.125 113.195312 27.683594 C 113.105469 27.769531 112.753906 27.726562 112.636719 27.621094 C 111.625 26.695312 110.449219 26.496094 109.160156 26.757812 C 108.628906 26.867188 108.214844 27.128906 108.160156 27.738281 C 108.109375 28.339844 108.355469 28.773438 109 28.980469 C 109.777344 29.226562 110.582031 29.375 111.371094 29.585938 C 111.875 29.71875 112.382812 29.855469 112.871094 30.046875 C 114.25 30.59375 115.097656 31.570312 115.199219 33.113281 C 115.3125 34.78125 114.730469 36.105469 113.261719 36.957031 C 111.921875 37.730469 110.445312 37.789062 108.957031 37.636719 C 107.863281 37.527344 106.800781 37.257812 105.890625 36.617188 C 105.378906 36.253906 104.949219 35.78125 104.457031 35.335938 C 105.089844 34.648438 105.640625 34.070312 106.167969 33.472656 C 106.425781 33.183594 106.59375 33.246094 106.820312 33.515625 C 107.816406 34.699219 109.109375 35.140625 110.621094 34.992188 C 111.453125 34.910156 111.957031 34.488281 112.019531 33.832031 C 112.082031 33.199219 111.710938 32.683594 110.921875 32.445312 C 110.144531 32.207031 109.34375 32.039062 108.554688 31.832031 C 108.253906 31.753906 107.953125 31.667969 107.664062 31.558594 C 105.371094 30.671875 104.515625 28.714844 105.433594 26.367188 Z M 105.433594 26.367188 "/>
<path style=" stroke:none;fill-rule:nonzero;fill:rgb(1.960784%,1.960784%,1.960784%);fill-opacity:1;" d="M 124.632812 24.296875 C 124.902344 24.296875 125.113281 24.296875 125.351562 24.296875 C 125.351562 25.160156 125.351562 25.996094 125.351562 26.886719 C 124.160156 26.886719 122.964844 26.886719 121.777344 26.886719 C 121.730469 26.984375 121.6875 27.035156 121.6875 27.085938 C 121.683594 29.0625 121.660156 31.039062 121.691406 33.015625 C 121.710938 34.492188 122.625 35.117188 124.039062 34.671875 C 124.347656 34.574219 124.636719 34.421875 125.007812 34.261719 C 125.289062 35.0625 125.566406 35.824219 125.8125 36.597656 C 125.839844 36.6875 125.714844 36.875 125.609375 36.953125 C 124.207031 37.996094 121.171875 37.933594 119.8125 36.828125 C 118.941406 36.121094 118.5 35.15625 118.464844 34.066406 C 118.390625 31.9375 118.402344 29.804688 118.382812 27.671875 C 118.378906 27.441406 118.382812 27.207031 118.382812 26.917969 C 117.710938 26.917969 117.078125 26.917969 116.417969 26.917969 C 116.417969 26.027344 116.417969 25.195312 116.417969 24.308594 C 117.058594 24.308594 117.691406 24.308594 118.375 24.308594 C 118.375 23.421875 118.375 22.589844 118.375 21.734375 C 119.488281 21.554688 120.554688 21.382812 121.679688 21.199219 C 121.679688 22.265625 121.679688 23.253906 121.679688 24.296875 C 122.675781 24.296875 123.625 24.296875 124.632812 24.296875 Z M 124.632812 24.296875 "/>
<path style=" stroke:none;fill-rule:nonzero;fill:rgb(3.137255%,75.294119%,32.941177%);fill-opacity:1;" d="M 171.15625 27.824219 C 171.15625 31.046875 171.15625 34.210938 171.15625 37.414062 C 170.015625 37.414062 168.902344 37.414062 167.765625 37.414062 C 167.765625 31.632812 167.765625 25.875 167.765625 20.074219 C 168.871094 20.074219 169.96875 20.074219 171.15625 20.074219 C 171.15625 22.625 171.15625 25.195312 171.15625 27.824219 Z M 171.15625 27.824219 "/>
<path style=" stroke:none;fill-rule:nonzero;fill:rgb(0.784314%,0.784314%,0.784314%);fill-opacity:1;" d="M 131.332031 27.824219 C 131.332031 31.050781 131.332031 34.214844 131.332031 37.417969 C 130.246094 37.417969 129.183594 37.417969 128.085938 37.417969 C 128.085938 33.078125 128.085938 28.726562 128.085938 24.339844 C 129.136719 24.339844 130.199219 24.339844 131.332031 24.339844 C 131.332031 25.476562 131.332031 26.621094 131.332031 27.824219 Z M 131.332031 27.824219 "/>
<path style=" stroke:none;fill-rule:nonzero;fill:rgb(1.176471%,1.176471%,1.176471%);fill-opacity:1;" d="M 130.378906 18.960938 C 131.535156 19.449219 132 20.476562 131.578125 21.539062 C 131.179688 22.535156 129.964844 23.007812 128.878906 22.585938 C 127.898438 22.210938 127.425781 21.101562 127.808594 20.066406 C 128.152344 19.136719 129.035156 18.742188 130.378906 18.960938 Z M 130.378906 18.960938 "/>
<path style=" stroke:none;fill-rule:nonzero;fill:rgb(98.823529%,99.607843%,99.215686%);fill-opacity:1;" d="M 28.222656 30.917969 C 26.09375 26.695312 25.132812 22.265625 25.542969 17.585938 C 25.75 15.269531 26.761719 13.25 28.292969 11.511719 C 31.425781 7.957031 35.394531 6.785156 39.929688 7.75 C 44.566406 8.738281 47.441406 11.746094 48.753906 16.265625 C 49.300781 18.152344 49.191406 20.109375 49.015625 22.039062 C 48.808594 24.34375 48.1875 26.570312 47.351562 28.710938 C 45.898438 32.4375 43.5 35.5 40.398438 37.996094 C 39.585938 38.652344 38.679688 39.1875 37.828125 39.800781 C 37.40625 40.109375 37.058594 40.070312 36.613281 39.796875 C 33.039062 37.59375 30.265625 34.636719 28.222656 30.917969 M 36.367188 13.359375 C 35.605469 13.628906 34.769531 13.777344 34.09375 14.191406 C 30.503906 16.394531 30.398438 21.296875 33.429688 23.765625 C 35.347656 25.332031 37.507812 25.492188 39.785156 24.578125 C 42.601562 23.449219 44.09375 19.847656 42.871094 17.058594 C 41.679688 14.34375 39.546875 13.101562 36.367188 13.359375 Z M 36.367188 13.359375 "/>
<path style=" stroke:none;fill-rule:nonzero;fill:rgb(99.607843%,99.607843%,99.607843%);fill-opacity:1;" d="M 76.859375 24.890625 C 76.859375 24.210938 76.859375 23.589844 76.859375 22.832031 C 78.324219 22.921875 79.742188 22.910156 81.132812 23.117188 C 83.050781 23.40625 84.171875 24.644531 84.578125 26.53125 C 84.882812 27.945312 84.898438 29.363281 84.609375 30.78125 C 84.132812 33.097656 82.691406 34.371094 80.324219 34.503906 C 79.199219 34.566406 78.070312 34.511719 76.859375 34.511719 C 76.859375 31.339844 76.859375 28.144531 76.859375 24.890625 Z M 76.859375 24.890625 "/>
<path style=" stroke:none;fill-rule:nonzero;fill:rgb(98.823529%,99.607843%,99.215686%);fill-opacity:1;" d="M 158.882812 29.105469 C 159.035156 29.59375 159.179688 30.035156 159.335938 30.511719 C 157.757812 30.511719 156.226562 30.511719 154.65625 30.511719 C 154.679688 30.363281 154.6875 30.230469 154.726562 30.109375 C 155.371094 28.105469 156.019531 26.101562 156.675781 24.101562 C 156.726562 23.949219 156.847656 23.824219 156.9375 23.6875 C 157.042969 23.828125 157.191406 23.953125 157.242188 24.113281 C 157.796875 25.757812 158.332031 27.410156 158.882812 29.105469 Z M 158.882812 29.105469 "/>
<path style=" stroke:none;fill-rule:nonzero;fill:rgb(99.215686%,99.215686%,99.215686%);fill-opacity:1;" d="M 96.773438 26.648438 C 97.214844 26.65625 97.613281 26.621094 97.988281 26.695312 C 99.179688 26.9375 99.746094 27.808594 99.796875 29.441406 C 97.988281 29.441406 96.175781 29.441406 94.363281 29.441406 C 94.488281 27.886719 95.28125 26.953125 96.773438 26.648438 Z M 96.773438 26.648438 "/>
<path style=" stroke:none;fill-rule:nonzero;fill:rgb(5.882353%,76.078433%,35.294119%);fill-opacity:1;" d="M 36.417969 13.347656 C 39.546875 13.101562 41.679688 14.34375 42.871094 17.058594 C 44.09375 19.847656 42.601562 23.449219 39.785156 24.578125 C 37.507812 25.492188 35.347656 25.332031 33.429688 23.765625 C 30.398438 21.296875 30.503906 16.394531 34.09375 14.191406 C 34.769531 13.777344 35.605469 13.628906 36.417969 13.347656 M 40.238281 19.90625 C 40.570312 18.25 39.664062 16.75 38.121094 16.410156 C 36.414062 16.035156 34.746094 16.914062 34.367188 18.347656 C 33.910156 20.066406 34.851562 21.570312 36.199219 21.976562 C 38.070312 22.535156 39.734375 21.679688 40.238281 19.90625 Z M 40.238281 19.90625 "/>
<path style=" stroke:none;fill-rule:nonzero;fill:rgb(96.862745%,99.215686%,97.647059%);fill-opacity:1;" d="M 40.226562 19.957031 C 39.734375 21.679688 38.070312 22.535156 36.199219 21.976562 C 34.851562 21.570312 33.910156 20.066406 34.367188 18.347656 C 34.746094 16.914062 36.414062 16.035156 38.121094 16.410156 C 39.664062 16.75 40.570312 18.25 40.226562 19.957031 Z M 40.226562 19.957031 "/>
</g>
</svg>
