<?xml version="1.0" encoding="UTF-8"?>
<svg version="1.1" xmlns="http://www.w3.org/2000/svg" width="500" height="500">
<path d="M0 0 C165 0 330 0 500 0 C500 165 500 330 500 500 C335 500 170 500 0 500 C0 335 0 170 0 0 Z " fill="#FEFEFE" transform="translate(0,0)"/>
<path d="M0 0 C2.21361077 0.00537759 4.42702022 0.00001609 6.640625 -0.00634766 C8.07291711 -0.00568703 9.50520909 -0.0044062 10.9375 -0.00244141 C12.21447754 -0.00131348 13.49145508 -0.00018555 14.80712891 0.00097656 C18.80377858 0.13783044 22.62795848 0.57780145 26.5859375 1.13037109 C26.5859375 1.79037109 26.5859375 2.45037109 26.5859375 3.13037109 C27.6378125 3.08912109 28.6896875 3.04787109 29.7734375 3.00537109 C33.32603923 3.12184984 35.43460391 3.60245178 38.5859375 5.13037109 C38.5859375 5.79037109 38.5859375 6.45037109 38.5859375 7.13037109 C39.5140625 7.08912109 40.4421875 7.04787109 41.3984375 7.00537109 C44.5859375 7.13037109 44.5859375 7.13037109 47.5859375 9.13037109 C47.5859375 9.79037109 47.5859375 10.45037109 47.5859375 11.13037109 C48.46507812 11.22447266 49.34421875 11.31857422 50.25 11.41552734 C53.90220543 12.19814279 55.95082267 13.39389927 58.9609375 15.56787109 C59.83492187 16.18533203 60.70890625 16.80279297 61.609375 17.43896484 C62.26164063 17.99712891 62.91390625 18.55529297 63.5859375 19.13037109 C63.5859375 19.79037109 63.5859375 20.45037109 63.5859375 21.13037109 C64.2046875 21.27474609 64.8234375 21.41912109 65.4609375 21.56787109 C67.5859375 22.13037109 67.5859375 22.13037109 69.5859375 23.13037109 C69.5859375 23.79037109 69.5859375 24.45037109 69.5859375 25.13037109 C70.2459375 25.13037109 70.9059375 25.13037109 71.5859375 25.13037109 C71.5859375 25.79037109 71.5859375 26.45037109 71.5859375 27.13037109 C72.2459375 27.13037109 72.9059375 27.13037109 73.5859375 27.13037109 C73.5859375 27.79037109 73.5859375 28.45037109 73.5859375 29.13037109 C74.2459375 29.13037109 74.9059375 29.13037109 75.5859375 29.13037109 C75.5859375 29.79037109 75.5859375 30.45037109 75.5859375 31.13037109 C76.1840625 31.21287109 76.7821875 31.29537109 77.3984375 31.38037109 C80.19666893 32.33976473 80.89004343 33.7708663 82.5859375 36.13037109 C83.5759375 36.46037109 84.5659375 36.79037109 85.5859375 37.13037109 C85.5859375 37.79037109 85.5859375 38.45037109 85.5859375 39.13037109 C86.2459375 39.13037109 86.9059375 39.13037109 87.5859375 39.13037109 C87.5859375 39.79037109 87.5859375 40.45037109 87.5859375 41.13037109 C88.2459375 41.13037109 88.9059375 41.13037109 89.5859375 41.13037109 C90.1840625 42.18224609 90.7821875 43.23412109 91.3984375 44.31787109 C92.59851865 46.42327662 93.81558235 48.50354397 95.0859375 50.56787109 C97.09797326 54.00509885 98.8569145 57.54553007 100.5859375 61.13037109 C101.07578125 62.13841797 101.565625 63.14646484 102.0703125 64.18505859 C104.89867513 70.13582156 107.34690294 75.92915033 109.04296875 82.30224609 C109.42829719 84.13156959 109.42829719 84.13156959 110.5859375 85.13037109 C110.79490067 86.93848293 110.95374111 88.75253142 111.0859375 90.56787109 C111.30012933 94.49472024 111.30012933 94.49472024 112.5859375 98.13037109 C112.89663132 103.12204226 112.88111019 108.12983193 112.8984375 113.13037109 C112.90138824 113.86713074 112.90433899 114.60389038 112.90737915 115.36297607 C112.92219829 131.66536152 112.45803163 149.11748854 105.5859375 164.13037109 C104.64488526 166.98107577 103.83287307 169.86489454 103.0234375 172.75537109 C101.73464328 177.32001688 100.40161561 181.74116662 98.5859375 186.13037109 C98.3178125 187.16162109 98.0496875 188.19287109 97.7734375 189.25537109 C96.35395904 194.46012545 93.88852178 199.27033633 91.5859375 204.13037109 C90.9259375 204.13037109 90.2659375 204.13037109 89.5859375 204.13037109 C89.32039062 204.83935547 89.05484375 205.54833984 88.78125 206.27880859 C85.38590883 214.37880549 78.67071254 229.08798358 70.5859375 233.13037109 C70.2559375 234.12037109 69.9259375 235.11037109 69.5859375 236.13037109 C68.9259375 236.13037109 68.2659375 236.13037109 67.5859375 236.13037109 C67.5859375 236.97599609 67.5859375 237.82162109 67.5859375 238.69287109 C66.33042819 243.00868433 64.56808525 244.2005521 61.1484375 246.95458984 C58.00566831 249.62306917 55.20120289 252.54578647 52.3359375 255.50537109 C47.20477791 260.75561458 41.84550371 265.19463001 35.8515625 269.42333984 C33.49972553 270.93176014 33.49972553 270.93176014 32.5859375 273.13037109 C31.9259375 273.13037109 31.2659375 273.13037109 30.5859375 273.13037109 C30.5859375 273.79037109 30.5859375 274.45037109 30.5859375 275.13037109 C28.9359375 275.79037109 27.2859375 276.45037109 25.5859375 277.13037109 C25.5859375 277.79037109 25.5859375 278.45037109 25.5859375 279.13037109 C24.5959375 279.13037109 23.6059375 279.13037109 22.5859375 279.13037109 C22.5859375 279.79037109 22.5859375 280.45037109 22.5859375 281.13037109 C15.9609375 284.13037109 15.9609375 284.13037109 12.5859375 284.13037109 C12.5859375 284.79037109 12.5859375 285.45037109 12.5859375 286.13037109 C-5.22237154 288.81841774 -5.22237154 288.81841774 -12.4140625 285.13037109 C-13.09674388 283.80516607 -13.7647666 282.47224928 -14.4140625 281.13037109 C-16.06855355 280.74107908 -17.73952451 280.42159509 -19.4140625 280.13037109 C-24.32257743 278.09343676 -28.31961776 275.52291102 -32.4140625 272.13037109 C-33.4040625 271.80037109 -34.3940625 271.47037109 -35.4140625 271.13037109 C-36.75829589 269.47248324 -38.09024733 267.80460792 -39.4140625 266.13037109 C-41.06409078 264.77650174 -42.7315012 263.44358967 -44.4140625 262.13037109 C-46.09250729 260.47556638 -47.75673268 258.80632259 -49.4140625 257.13037109 C-50.54971409 256.00429384 -51.68649799 254.87935775 -52.82421875 253.75537109 C-54.041706 252.54707739 -55.25915324 251.33874338 -56.4765625 250.13037109 C-57.08822266 249.52708984 -57.69988281 248.92380859 -58.33007812 248.30224609 C-61.58039803 245.06949549 -64.7367904 241.86920495 -67.4140625 238.13037109 C-67.4140625 237.47037109 -67.4140625 236.81037109 -67.4140625 236.13037109 C-68.0740625 236.13037109 -68.7340625 236.13037109 -69.4140625 236.13037109 C-71.81137581 232.93395335 -73.79885975 230.12918898 -74.4140625 226.13037109 C-75.0740625 226.13037109 -75.7340625 226.13037109 -76.4140625 226.13037109 C-78.4140625 223.13037109 -78.4140625 223.13037109 -78.4140625 219.13037109 C-79.3421875 218.72818359 -79.3421875 218.72818359 -80.2890625 218.31787109 C-82.4140625 217.13037109 -82.4140625 217.13037109 -84.4140625 214.13037109 C-84.4140625 213.14037109 -84.4140625 212.15037109 -84.4140625 211.13037109 C-85.0740625 211.13037109 -85.7340625 211.13037109 -86.4140625 211.13037109 C-86.4140625 209.81037109 -86.4140625 208.49037109 -86.4140625 207.13037109 C-87.0740625 207.13037109 -87.7340625 207.13037109 -88.4140625 207.13037109 C-89.0740625 204.82037109 -89.7340625 202.51037109 -90.4140625 200.13037109 C-91.0740625 200.13037109 -91.7340625 200.13037109 -92.4140625 200.13037109 C-92.67960937 199.32212891 -92.94515625 198.51388672 -93.21875 197.68115234 C-93.57195312 196.61251953 -93.92515625 195.54388672 -94.2890625 194.44287109 C-94.63710937 193.38712891 -94.98515625 192.33138672 -95.34375 191.24365234 C-96.7535345 185.79896848 -96.7535345 185.79896848 -100.4140625 182.13037109 C-101.15581165 179.68890528 -101.78255103 177.30016246 -102.3515625 174.81787109 C-102.70167911 173.35038886 -103.05194075 171.88294122 -103.40234375 170.41552734 C-103.57330566 169.68736816 -103.74426758 168.95920898 -103.92041016 168.20898438 C-104.59177259 165.38209033 -105.31626919 162.56949529 -106.0390625 159.75537109 C-108.11236068 151.3828719 -109.69345921 143.79166914 -109.4140625 135.13037109 C-110.0740625 135.13037109 -110.7340625 135.13037109 -111.4140625 135.13037109 C-111.46401062 129.79591185 -111.50003791 124.46159284 -111.52392578 119.12695312 C-111.53389866 117.31735865 -111.54748182 115.50777992 -111.56494141 113.69824219 C-111.80838334 87.79315686 -111.80838334 87.79315686 -106.9140625 78.31787109 C-104.94198721 74.29875859 -103.58087842 70.4642588 -102.4140625 66.13037109 C-101.47981501 63.76205372 -100.45731052 61.45396897 -99.4140625 59.13037109 C-98.7540625 59.13037109 -98.0940625 59.13037109 -97.4140625 59.13037109 C-97.3521875 58.14037109 -97.3521875 58.14037109 -97.2890625 57.13037109 C-95.99863638 52.70605295 -93.24552686 49.70625801 -90.4140625 46.13037109 C-89.47558182 44.81857213 -88.53807241 43.50607773 -87.6015625 42.19287109 C-84.03040269 37.44077219 -80.00975638 32.91197063 -75.4140625 29.13037109 C-74.4240625 29.13037109 -73.4340625 29.13037109 -72.4140625 29.13037109 C-72.4140625 28.47037109 -72.4140625 27.81037109 -72.4140625 27.13037109 C-71.7540625 27.13037109 -71.0940625 27.13037109 -70.4140625 27.13037109 C-69.7540625 25.81037109 -69.0940625 24.49037109 -68.4140625 23.13037109 C-67.4240625 23.13037109 -66.4340625 23.13037109 -65.4140625 23.13037109 C-65.4140625 22.47037109 -65.4140625 21.81037109 -65.4140625 21.13037109 C-64.7540625 21.13037109 -64.0940625 21.13037109 -63.4140625 21.13037109 C-62.9190625 19.64537109 -62.9190625 19.64537109 -62.4140625 18.13037109 C-57.29956088 14.17539621 -51.72010655 10.9111542 -45.578125 8.87646484 C-42.77401185 7.90970381 -40.07808147 6.73492946 -37.3515625 5.56787109 C-24.93924878 0.39477914 -13.27569002 -0.03838611 0 0 Z " fill="#FCFEFD" transform="translate(247.4140625,89.86962890625)"/>
<path d="M0 0 C1.12085999 0.00022659 2.24171997 0.00045319 3.39654541 0.00068665 C4.60083191 0.0161705 5.80511841 0.03165436 7.04589844 0.04760742 C8.28321716 0.05185226 9.52053589 0.05609711 10.79534912 0.06047058 C14.07689884 0.07441363 17.358004 0.10134532 20.6394043 0.13458252 C23.99100651 0.16533023 27.34262783 0.17873014 30.69433594 0.1940918 C37.26482221 0.22717621 43.83501146 0.27738772 50.40527344 0.34057617 C53.75846246 6.02301328 54.87004921 8.7175214 54.40527344 15.34057617 C53.74527344 15.34057617 53.08527344 15.34057617 52.40527344 15.34057617 C51.74527344 16.66057617 51.08527344 17.98057617 50.40527344 19.34057617 C49.74527344 19.34057617 49.08527344 19.34057617 48.40527344 19.34057617 C48.40527344 20.00057617 48.40527344 20.66057617 48.40527344 21.34057617 C34.54527344 21.34057617 20.68527344 21.34057617 6.40527344 21.34057617 C5.91027344 23.81557617 5.91027344 23.81557617 5.40527344 26.34057617 C5.08043926 27.67600556 4.75018793 29.01019169 4.40527344 30.34057617 C3.74527344 30.34057617 3.08527344 30.34057617 2.40527344 30.34057617 C2.42589844 31.53682617 2.44652344 32.73307617 2.46777344 33.96557617 C2.47409915 37.52062486 2.10416219 40.84613241 1.40527344 44.34057617 C0.74527344 44.34057617 0.08527344 44.34057617 -0.59472656 44.34057617 C-1.25472656 47.31057617 -1.91472656 50.28057617 -2.59472656 53.34057617 C-3.25472656 53.34057617 -3.91472656 53.34057617 -4.59472656 53.34057617 C-4.59472656 55.32057617 -4.59472656 57.30057617 -4.59472656 59.34057617 C-5.25472656 59.34057617 -5.91472656 59.34057617 -6.59472656 59.34057617 C-6.78035156 60.91838867 -6.78035156 60.91838867 -6.96972656 62.52807617 C-7.59472656 66.34057617 -7.59472656 66.34057617 -8.53222656 68.65307617 C-9.84284414 71.96816769 -10.42664111 75.26329048 -11.08691406 78.75854492 C-11.78827285 82.32468459 -12.68275189 85.82295957 -13.59472656 89.34057617 C-14.58472656 89.34057617 -15.57472656 89.34057617 -16.59472656 89.34057617 C-16.69785156 90.16557617 -16.80097656 90.99057617 -16.90722656 91.84057617 C-17.71118712 95.93346629 -19.05824814 99.46597842 -20.59472656 103.34057617 C-21.25472656 103.34057617 -21.91472656 103.34057617 -22.59472656 103.34057617 C-22.59472656 104.99057617 -22.59472656 106.64057617 -22.59472656 108.34057617 C-23.25472656 108.34057617 -23.91472656 108.34057617 -24.59472656 108.34057617 C-24.59472656 110.32057617 -24.59472656 112.30057617 -24.59472656 114.34057617 C-25.25472656 114.34057617 -25.91472656 114.34057617 -26.59472656 114.34057617 C-26.64371094 115.1372168 -26.69269531 115.93385742 -26.74316406 116.75463867 C-26.81792969 117.81424805 -26.89269531 118.87385742 -26.96972656 119.96557617 C-27.03933594 121.0097168 -27.10894531 122.05385742 -27.18066406 123.12963867 C-27.59472656 126.34057617 -27.59472656 126.34057617 -29.59472656 132.34057617 C99.76527344 132.34057617 229.12527344 132.34057617 362.40527344 132.34057617 C360.25511372 122.50127249 360.25511372 122.50127249 357.90527344 118.84057617 C355.86683514 115.44317901 355.13542509 111.92125537 354.15136719 108.10229492 C353.34877503 105.13144331 352.35282721 102.3173968 351.22558594 99.45776367 C349.84476456 95.89392944 348.62231715 92.27165002 347.37011719 88.66088867 C346.52042686 86.20145419 346.52042686 86.20145419 344.40527344 84.34057617 C344.26089844 83.26807617 344.11652344 82.19557617 343.96777344 81.09057617 C343.62800204 77.39551103 343.62800204 77.39551103 341.96777344 74.65307617 C339.99916992 70.47963671 339.52694208 66.50078178 338.93261719 61.94995117 C338.62562732 59.19224805 338.62562732 59.19224805 336.40527344 57.34057617 C336.40527344 56.35057617 336.40527344 55.36057617 336.40527344 54.34057617 C335.74527344 54.34057617 335.08527344 54.34057617 334.40527344 54.34057617 C333.89622687 52.468012 333.39844889 50.59238276 332.90527344 48.71557617 C332.48761719 47.14936523 332.48761719 47.14936523 332.06152344 45.55151367 C331.41408747 42.383702 331.28914424 39.5631615 331.40527344 36.34057617 C330.74527344 36.34057617 330.08527344 36.34057617 329.40527344 36.34057617 C328.92315129 34.77898558 328.44471471 33.21625689 327.96777344 31.65307617 C327.56751953 30.34790039 327.56751953 30.34790039 327.15917969 29.01635742 C326.44157195 26.46940769 325.90927761 23.93667314 325.40527344 21.34057617 C323.63482666 21.37199707 323.63482666 21.37199707 321.82861328 21.40405273 C317.43420627 21.47665386 313.0398519 21.52244888 308.64501953 21.56030273 C306.74584019 21.58037247 304.84672229 21.60763468 302.94775391 21.64233398 C300.21208505 21.69105726 297.47723573 21.71359125 294.74121094 21.73120117 C293.89722748 21.75184631 293.05324402 21.77249146 292.1836853 21.79376221 C286.66429999 21.79584565 283.61536849 21.00027084 279.40527344 17.34057617 C279.40527344 16.68057617 279.40527344 16.02057617 279.40527344 15.34057617 C278.74527344 15.34057617 278.08527344 15.34057617 277.40527344 15.34057617 C277.35080297 13.92434401 277.31226836 12.50749426 277.28027344 11.09057617 C277.25707031 10.30166992 277.23386719 9.51276367 277.20996094 8.69995117 C277.43329151 6.00211781 277.83015853 4.5476234 279.40527344 2.34057617 C282.96587187 0.60232307 285.87887448 0.07939713 289.81884766 0.03417969 C290.87699677 0.01819229 291.93514587 0.0022049 293.02536011 -0.01426697 C294.15877838 -0.01962967 295.29219666 -0.02499237 296.45996094 -0.03051758 C298.2223259 -0.04406029 298.2223259 -0.04406029 300.02029419 -0.05787659 C302.50324967 -0.07237023 304.98624326 -0.08126361 307.46923828 -0.08496094 C311.25977125 -0.09685947 315.04867747 -0.14605971 318.83886719 -0.1965332 C321.25422385 -0.20599753 323.66959048 -0.21323252 326.08496094 -0.21801758 C327.77901566 -0.24731606 327.77901566 -0.24731606 329.5072937 -0.27720642 C336.48135076 -0.23738653 340.25355702 0.51438772 345.40527344 5.34057617 C346.42089844 7.77026367 346.42089844 7.77026367 346.65527344 10.21557617 C347.27013764 14.71135744 348.6004193 18.15331458 350.40527344 22.34057617 C351.21231661 25.35548876 351.93053365 28.38509968 352.64746094 31.42260742 C353.28884217 33.89225579 354.04951554 36.11842257 355.03027344 38.46557617 C356.83985212 42.95636305 357.12021759 47.54377436 357.40527344 52.34057617 C358.06527344 52.34057617 358.72527344 52.34057617 359.40527344 52.34057617 C359.48777344 53.28932617 359.57027344 54.23807617 359.65527344 55.21557617 C360.50618869 61.20845073 363.05181223 66.80194126 365.88183594 72.11010742 C368.03007881 76.66548397 369.21790047 81.38460153 370.51074219 86.23901367 C371.62855847 90.25460849 372.72005837 93.07498321 375.40527344 96.34057617 C375.59277344 99.09057617 375.59277344 99.09057617 375.40527344 101.34057617 C376.06527344 101.34057617 376.72527344 101.34057617 377.40527344 101.34057617 C377.40527344 103.32057617 377.40527344 105.30057617 377.40527344 107.34057617 C378.06527344 107.34057617 378.72527344 107.34057617 379.40527344 107.34057617 C379.53804688 108.33959961 379.67082031 109.33862305 379.80761719 110.36791992 C379.98421875 111.65827148 380.16082031 112.94862305 380.34277344 114.27807617 C380.51679688 115.56584961 380.69082031 116.85362305 380.87011719 118.18041992 C381.06689767 121.19523931 381.06689767 121.19523931 382.40527344 122.34057617 C382.44591176 124.00674732 382.44799444 125.67445712 382.40527344 127.34057617 C383.06527344 127.34057617 383.72527344 127.34057617 384.40527344 127.34057617 C387.6878652 134.09626726 390.08287601 140.77884516 388.40527344 148.34057617 C383.22168128 153.28855051 378.11209429 153.46523752 371.22719669 153.47759056 C370.13605214 153.4815683 370.13605214 153.4815683 369.02286425 153.4856264 C366.57236388 153.49331836 364.12191362 153.49387853 361.67140198 153.49447632 C359.90197288 153.49849097 358.1325447 153.5029292 356.36311764 153.50775588 C351.49053359 153.51972623 346.61795946 153.52537086 341.74536359 153.52993703 C336.49443052 153.53589109 331.24350931 153.54750115 325.99258423 153.55822754 C313.30891831 153.58275177 300.62524847 153.59737652 287.94156614 153.61028761 C284.3610119 153.61399882 280.78045805 153.61797208 277.1999042 153.62204027 C254.97722207 153.64727051 232.75453934 153.66932902 210.53184605 153.68176842 C205.38443054 153.68469822 200.23701506 153.68765987 195.08959961 153.69067383 C193.17049934 153.6917929 193.17049934 153.6917929 191.21262937 153.69293459 C170.46836953 153.70559924 149.72419518 153.73883774 128.97997535 153.78047566 C107.69604042 153.8228479 86.41214934 153.84645779 65.12817234 153.85168898 C53.17229436 153.8551079 41.21655013 153.86692006 29.26071358 153.89979172 C19.08306282 153.92772834 8.90557323 153.93881958 -1.2721129 153.92759626 C-6.46769757 153.92239371 -11.6629444 153.9253998 -16.85848045 153.9500618 C-21.61127646 153.97243473 -26.36348959 153.97190816 -31.11629499 153.95285793 C-32.83900655 153.95004109 -34.56175664 153.9557491 -36.28440588 153.97067086 C-38.62059029 153.98967583 -40.95467439 153.97805972 -43.29080868 153.95860863 C-44.58994196 153.95996516 -45.88907524 153.96132169 -47.2275762 153.96271932 C-51.45948935 153.18079529 -52.91627636 151.62996569 -55.59472656 148.34057617 C-57.18610694 145.15781541 -56.99186164 141.80523738 -56.59472656 138.34057617 C-55.21972656 135.84057617 -55.21972656 135.84057617 -53.59472656 134.34057617 C-52.93472656 134.34057617 -52.27472656 134.34057617 -51.59472656 134.34057617 C-51.59472656 132.36057617 -51.59472656 130.38057617 -51.59472656 128.34057617 C-50.93472656 128.34057617 -50.27472656 128.34057617 -49.59472656 128.34057617 C-49.54574219 127.55553711 -49.49675781 126.77049805 -49.44628906 125.96166992 C-49.03272296 120.15035314 -48.47690508 114.86163317 -46.59472656 109.34057617 C-45.93472656 109.34057617 -45.27472656 109.34057617 -44.59472656 109.34057617 C-44.59472656 108.02057617 -44.59472656 106.70057617 -44.59472656 105.34057617 C-43.93472656 105.34057617 -43.27472656 105.34057617 -42.59472656 105.34057617 C-42.59472656 103.36057617 -42.59472656 101.38057617 -42.59472656 99.34057617 C-41.93472656 99.34057617 -41.27472656 99.34057617 -40.59472656 99.34057617 C-40.47097656 98.04120117 -40.34722656 96.74182617 -40.21972656 95.40307617 C-39.52109162 89.22209763 -38.50292882 83.44760541 -36.03222656 77.71557617 C-34.5363135 74.20343245 -33.98066179 71.12274135 -33.59472656 67.34057617 C-32.93472656 67.34057617 -32.27472656 67.34057617 -31.59472656 67.34057617 C-31.59472656 66.02057617 -31.59472656 64.70057617 -31.59472656 63.34057617 C-30.93472656 63.34057617 -30.27472656 63.34057617 -29.59472656 63.34057617 C-29.49675781 62.60452148 -29.39878906 61.8684668 -29.29785156 61.11010742 C-29.14832031 60.13428711 -28.99878906 59.1584668 -28.84472656 58.15307617 C-28.70550781 57.19014648 -28.56628906 56.2272168 -28.42285156 55.23510742 C-27.59472656 52.34057617 -27.59472656 52.34057617 -25.65332031 50.00073242 C-22.94305506 46.49847315 -22.29309983 43.24169018 -21.40722656 38.96557617 C-21.24287109 38.2359668 -21.07851563 37.50635742 -20.90917969 36.75463867 C-20.15196311 33.32110601 -19.54110495 29.94241568 -19.07128906 26.45385742 C-18.56900422 23.17253762 -17.9253372 21.67118681 -15.59472656 19.34057617 C-14.93472656 19.34057617 -14.27472656 19.34057617 -13.59472656 19.34057617 C-13.59472656 17.36057617 -13.59472656 15.38057617 -13.59472656 13.34057617 C-12.93472656 13.34057617 -12.27472656 13.34057617 -11.59472656 13.34057617 C-11.59472656 11.69057617 -11.59472656 10.04057617 -11.59472656 8.34057617 C-10.93472656 8.34057617 -10.27472656 8.34057617 -9.59472656 8.34057617 C-9.67722656 7.57745117 -9.75972656 6.81432617 -9.84472656 6.02807617 C-9.59472656 3.34057617 -9.59472656 3.34057617 -7.92877197 1.69389343 C-5.06461743 0.03321033 -3.29903734 -0.02229079 0 0 Z " fill="#0BC156" transform="translate(81.5947265625,289.659423828125)"/>
<path d="M0 0 C2.21361077 0.00537759 4.42702022 0.00001609 6.640625 -0.00634766 C8.07291711 -0.00568703 9.50520909 -0.0044062 10.9375 -0.00244141 C12.21447754 -0.00131348 13.49145508 -0.00018555 14.80712891 0.00097656 C18.80377858 0.13783044 22.62795848 0.57780145 26.5859375 1.13037109 C26.5859375 1.79037109 26.5859375 2.45037109 26.5859375 3.13037109 C27.6378125 3.08912109 28.6896875 3.04787109 29.7734375 3.00537109 C33.32603923 3.12184984 35.43460391 3.60245178 38.5859375 5.13037109 C38.5859375 5.79037109 38.5859375 6.45037109 38.5859375 7.13037109 C39.5140625 7.08912109 40.4421875 7.04787109 41.3984375 7.00537109 C44.5859375 7.13037109 44.5859375 7.13037109 47.5859375 9.13037109 C47.5859375 9.79037109 47.5859375 10.45037109 47.5859375 11.13037109 C48.46507812 11.22447266 49.34421875 11.31857422 50.25 11.41552734 C53.90220543 12.19814279 55.95082267 13.39389927 58.9609375 15.56787109 C59.83492187 16.18533203 60.70890625 16.80279297 61.609375 17.43896484 C62.26164063 17.99712891 62.91390625 18.55529297 63.5859375 19.13037109 C63.5859375 19.79037109 63.5859375 20.45037109 63.5859375 21.13037109 C64.2046875 21.27474609 64.8234375 21.41912109 65.4609375 21.56787109 C67.5859375 22.13037109 67.5859375 22.13037109 69.5859375 23.13037109 C69.5859375 23.79037109 69.5859375 24.45037109 69.5859375 25.13037109 C70.2459375 25.13037109 70.9059375 25.13037109 71.5859375 25.13037109 C71.5859375 25.79037109 71.5859375 26.45037109 71.5859375 27.13037109 C72.2459375 27.13037109 72.9059375 27.13037109 73.5859375 27.13037109 C73.5859375 27.79037109 73.5859375 28.45037109 73.5859375 29.13037109 C74.2459375 29.13037109 74.9059375 29.13037109 75.5859375 29.13037109 C75.5859375 29.79037109 75.5859375 30.45037109 75.5859375 31.13037109 C76.1840625 31.21287109 76.7821875 31.29537109 77.3984375 31.38037109 C80.19666893 32.33976473 80.89004343 33.7708663 82.5859375 36.13037109 C83.5759375 36.46037109 84.5659375 36.79037109 85.5859375 37.13037109 C85.5859375 37.79037109 85.5859375 38.45037109 85.5859375 39.13037109 C86.2459375 39.13037109 86.9059375 39.13037109 87.5859375 39.13037109 C87.5859375 39.79037109 87.5859375 40.45037109 87.5859375 41.13037109 C88.2459375 41.13037109 88.9059375 41.13037109 89.5859375 41.13037109 C90.1840625 42.18224609 90.7821875 43.23412109 91.3984375 44.31787109 C92.59851865 46.42327662 93.81558235 48.50354397 95.0859375 50.56787109 C97.09797326 54.00509885 98.8569145 57.54553007 100.5859375 61.13037109 C101.07578125 62.13841797 101.565625 63.14646484 102.0703125 64.18505859 C104.89867513 70.13582156 107.34690294 75.92915033 109.04296875 82.30224609 C109.42829719 84.13156959 109.42829719 84.13156959 110.5859375 85.13037109 C110.79490067 86.93848293 110.95374111 88.75253142 111.0859375 90.56787109 C111.30012933 94.49472024 111.30012933 94.49472024 112.5859375 98.13037109 C112.89663132 103.12204226 112.88111019 108.12983193 112.8984375 113.13037109 C112.90138824 113.86713074 112.90433899 114.60389038 112.90737915 115.36297607 C112.92219829 131.66536152 112.45803163 149.11748854 105.5859375 164.13037109 C104.64488526 166.98107577 103.83287307 169.86489454 103.0234375 172.75537109 C101.73464328 177.32001688 100.40161561 181.74116662 98.5859375 186.13037109 C98.3178125 187.16162109 98.0496875 188.19287109 97.7734375 189.25537109 C96.35395904 194.46012545 93.88852178 199.27033633 91.5859375 204.13037109 C90.9259375 204.13037109 90.2659375 204.13037109 89.5859375 204.13037109 C89.32039062 204.83935547 89.05484375 205.54833984 88.78125 206.27880859 C85.38590883 214.37880549 78.67071254 229.08798358 70.5859375 233.13037109 C70.2559375 234.12037109 69.9259375 235.11037109 69.5859375 236.13037109 C68.9259375 236.13037109 68.2659375 236.13037109 67.5859375 236.13037109 C67.5859375 236.97599609 67.5859375 237.82162109 67.5859375 238.69287109 C66.33042819 243.00868433 64.56808525 244.2005521 61.1484375 246.95458984 C58.00566831 249.62306917 55.20120289 252.54578647 52.3359375 255.50537109 C47.20477791 260.75561458 41.84550371 265.19463001 35.8515625 269.42333984 C33.49972553 270.93176014 33.49972553 270.93176014 32.5859375 273.13037109 C31.9259375 273.13037109 31.2659375 273.13037109 30.5859375 273.13037109 C30.5859375 273.79037109 30.5859375 274.45037109 30.5859375 275.13037109 C28.9359375 275.79037109 27.2859375 276.45037109 25.5859375 277.13037109 C25.5859375 277.79037109 25.5859375 278.45037109 25.5859375 279.13037109 C24.5959375 279.13037109 23.6059375 279.13037109 22.5859375 279.13037109 C22.5859375 279.79037109 22.5859375 280.45037109 22.5859375 281.13037109 C15.9609375 284.13037109 15.9609375 284.13037109 12.5859375 284.13037109 C12.5859375 284.79037109 12.5859375 285.45037109 12.5859375 286.13037109 C-5.22237154 288.81841774 -5.22237154 288.81841774 -12.4140625 285.13037109 C-13.09674388 283.80516607 -13.7647666 282.47224928 -14.4140625 281.13037109 C-16.06855355 280.74107908 -17.73952451 280.42159509 -19.4140625 280.13037109 C-24.32257743 278.09343676 -28.31961776 275.52291102 -32.4140625 272.13037109 C-33.4040625 271.80037109 -34.3940625 271.47037109 -35.4140625 271.13037109 C-36.75829589 269.47248324 -38.09024733 267.80460792 -39.4140625 266.13037109 C-41.06409078 264.77650174 -42.7315012 263.44358967 -44.4140625 262.13037109 C-46.09250729 260.47556638 -47.75673268 258.80632259 -49.4140625 257.13037109 C-50.54971409 256.00429384 -51.68649799 254.87935775 -52.82421875 253.75537109 C-54.041706 252.54707739 -55.25915324 251.33874338 -56.4765625 250.13037109 C-57.08822266 249.52708984 -57.69988281 248.92380859 -58.33007812 248.30224609 C-61.58039803 245.06949549 -64.7367904 241.86920495 -67.4140625 238.13037109 C-67.4140625 237.47037109 -67.4140625 236.81037109 -67.4140625 236.13037109 C-68.0740625 236.13037109 -68.7340625 236.13037109 -69.4140625 236.13037109 C-71.81137581 232.93395335 -73.79885975 230.12918898 -74.4140625 226.13037109 C-75.0740625 226.13037109 -75.7340625 226.13037109 -76.4140625 226.13037109 C-78.4140625 223.13037109 -78.4140625 223.13037109 -78.4140625 219.13037109 C-79.3421875 218.72818359 -79.3421875 218.72818359 -80.2890625 218.31787109 C-82.4140625 217.13037109 -82.4140625 217.13037109 -84.4140625 214.13037109 C-84.4140625 213.14037109 -84.4140625 212.15037109 -84.4140625 211.13037109 C-85.0740625 211.13037109 -85.7340625 211.13037109 -86.4140625 211.13037109 C-86.4140625 209.81037109 -86.4140625 208.49037109 -86.4140625 207.13037109 C-87.0740625 207.13037109 -87.7340625 207.13037109 -88.4140625 207.13037109 C-89.0740625 204.82037109 -89.7340625 202.51037109 -90.4140625 200.13037109 C-91.0740625 200.13037109 -91.7340625 200.13037109 -92.4140625 200.13037109 C-92.67960937 199.32212891 -92.94515625 198.51388672 -93.21875 197.68115234 C-93.57195312 196.61251953 -93.92515625 195.54388672 -94.2890625 194.44287109 C-94.63710937 193.38712891 -94.98515625 192.33138672 -95.34375 191.24365234 C-96.7535345 185.79896848 -96.7535345 185.79896848 -100.4140625 182.13037109 C-101.15581165 179.68890528 -101.78255103 177.30016246 -102.3515625 174.81787109 C-102.70167911 173.35038886 -103.05194075 171.88294122 -103.40234375 170.41552734 C-103.57330566 169.68736816 -103.74426758 168.95920898 -103.92041016 168.20898438 C-104.59177259 165.38209033 -105.31626919 162.56949529 -106.0390625 159.75537109 C-108.11236068 151.3828719 -109.69345921 143.79166914 -109.4140625 135.13037109 C-110.0740625 135.13037109 -110.7340625 135.13037109 -111.4140625 135.13037109 C-111.46401062 129.79591185 -111.50003791 124.46159284 -111.52392578 119.12695312 C-111.53389866 117.31735865 -111.54748182 115.50777992 -111.56494141 113.69824219 C-111.80838334 87.79315686 -111.80838334 87.79315686 -106.9140625 78.31787109 C-104.94198721 74.29875859 -103.58087842 70.4642588 -102.4140625 66.13037109 C-101.47981501 63.76205372 -100.45731052 61.45396897 -99.4140625 59.13037109 C-98.7540625 59.13037109 -98.0940625 59.13037109 -97.4140625 59.13037109 C-97.3521875 58.14037109 -97.3521875 58.14037109 -97.2890625 57.13037109 C-95.99863638 52.70605295 -93.24552686 49.70625801 -90.4140625 46.13037109 C-89.47558182 44.81857213 -88.53807241 43.50607773 -87.6015625 42.19287109 C-84.03040269 37.44077219 -80.00975638 32.91197063 -75.4140625 29.13037109 C-74.4240625 29.13037109 -73.4340625 29.13037109 -72.4140625 29.13037109 C-72.4140625 28.47037109 -72.4140625 27.81037109 -72.4140625 27.13037109 C-71.7540625 27.13037109 -71.0940625 27.13037109 -70.4140625 27.13037109 C-69.7540625 25.81037109 -69.0940625 24.49037109 -68.4140625 23.13037109 C-67.4240625 23.13037109 -66.4340625 23.13037109 -65.4140625 23.13037109 C-65.4140625 22.47037109 -65.4140625 21.81037109 -65.4140625 21.13037109 C-64.7540625 21.13037109 -64.0940625 21.13037109 -63.4140625 21.13037109 C-62.9190625 19.64537109 -62.9190625 19.64537109 -62.4140625 18.13037109 C-57.29956088 14.17539621 -51.72010655 10.9111542 -45.578125 8.87646484 C-42.77401185 7.90970381 -40.07808147 6.73492946 -37.3515625 5.56787109 C-24.93924878 0.39477914 -13.27569002 -0.03838611 0 0 Z M-44.4140625 32.13037109 C-44.4140625 32.79037109 -44.4140625 33.45037109 -44.4140625 34.13037109 C-44.9709375 34.39849609 -45.5278125 34.66662109 -46.1015625 34.94287109 C-51.03981336 37.19748908 -51.03981336 37.19748908 -54.4140625 41.13037109 C-56.26171875 42.20068359 -56.26171875 42.20068359 -58.4765625 43.25537109 C-59.21003906 43.60857422 -59.94351563 43.96177734 -60.69921875 44.32568359 C-61.26511719 44.59123047 -61.83101562 44.85677734 -62.4140625 45.13037109 C-62.4140625 45.79037109 -62.4140625 46.45037109 -62.4140625 47.13037109 C-63.0121875 47.39849609 -63.6103125 47.66662109 -64.2265625 47.94287109 C-66.43225283 49.14024584 -67.84989437 50.17516093 -69.4140625 52.13037109 C-69.4140625 53.12037109 -69.4140625 54.11037109 -69.4140625 55.13037109 C-70.0740625 55.13037109 -70.7340625 55.13037109 -71.4140625 55.13037109 C-73.44841781 58.86002249 -74.4140625 60.79942151 -74.4140625 65.13037109 C-75.0740625 65.13037109 -75.7340625 65.13037109 -76.4140625 65.13037109 C-76.4140625 65.79037109 -76.4140625 66.45037109 -76.4140625 67.13037109 C-77.0740625 67.13037109 -77.7340625 67.13037109 -78.4140625 67.13037109 C-78.66800781 67.75685547 -78.92195313 68.38333984 -79.18359375 69.02880859 C-79.52777344 69.84607422 -79.87195313 70.66333984 -80.2265625 71.50537109 C-80.73123047 72.72353516 -80.73123047 72.72353516 -81.24609375 73.96630859 C-82.4140625 76.13037109 -82.4140625 76.13037109 -85.4140625 78.13037109 C-89.73057626 88.12056373 -89.94925539 97.97802287 -89.7265625 108.63037109 C-89.71501997 110.03790973 -89.70525018 111.44546403 -89.69726562 112.85302734 C-89.58427925 125.99749182 -88.80643542 138.85711126 -86.1640625 151.75537109 C-85.94588867 152.84060059 -85.72771484 153.92583008 -85.50292969 155.04394531 C-84.09594151 161.72764239 -82.35749638 167.6986291 -79.41796875 173.87255859 C-78.03666364 176.97915141 -77.64405431 179.7571579 -77.4140625 183.13037109 C-76.0940625 183.46037109 -74.7740625 183.79037109 -73.4140625 184.13037109 C-73.4140625 186.11037109 -73.4140625 188.09037109 -73.4140625 190.13037109 C-72.7540625 190.13037109 -72.0940625 190.13037109 -71.4140625 190.13037109 C-71.4140625 190.79037109 -71.4140625 191.45037109 -71.4140625 192.13037109 C-70.7540625 192.13037109 -70.0940625 192.13037109 -69.4140625 192.13037109 C-69.1871875 192.93474609 -68.9603125 193.73912109 -68.7265625 194.56787109 C-67.09623816 198.99303716 -65.15173951 203.27162753 -62.4140625 207.13037109 C-61.4240625 207.46037109 -60.4340625 207.79037109 -59.4140625 208.13037109 C-59.4140625 209.12037109 -59.4140625 210.11037109 -59.4140625 211.13037109 C-58.7540625 211.13037109 -58.0940625 211.13037109 -57.4140625 211.13037109 C-57.29546875 211.70916016 -57.176875 212.28794922 -57.0546875 212.88427734 C-55.28571347 219.08647286 -50.93255522 223.73078608 -46.4140625 228.13037109 C-45.4140625 229.79703776 -44.4140625 231.46370443 -43.4140625 233.13037109 C-42.7540625 233.13037109 -42.0940625 233.13037109 -41.4140625 233.13037109 C-40.4140625 235.13037109 -39.4140625 237.13037109 -38.4140625 239.13037109 C-37.7540625 239.13037109 -37.0940625 239.13037109 -36.4140625 239.13037109 C-36.4140625 239.79037109 -36.4140625 240.45037109 -36.4140625 241.13037109 C-35.3621875 241.68724609 -34.3103125 242.24412109 -33.2265625 242.81787109 C-29.72719617 244.80037501 -27.22228224 247.24625352 -24.4140625 250.13037109 C-22.24785706 251.42557105 -22.24785706 251.42557105 -20.4140625 252.13037109 C-20.4140625 252.79037109 -20.4140625 253.45037109 -20.4140625 254.13037109 C-19.7540625 254.13037109 -19.0940625 254.13037109 -18.4140625 254.13037109 C-18.4140625 254.79037109 -18.4140625 255.45037109 -18.4140625 256.13037109 C-16.95868682 256.96885914 -15.49965877 257.80101044 -14.0390625 258.63037109 C-13.22695312 259.09443359 -12.41484375 259.55849609 -11.578125 260.03662109 C-9.52069376 261.28072969 -9.52069376 261.28072969 -7.4140625 261.13037109 C-7.4140625 261.79037109 -7.4140625 262.45037109 -7.4140625 263.13037109 C-5.09570963 264.59007475 -3.80394207 265.16115106 -1.0390625 264.94287109 C2.03902082 263.99013102 4.71747148 262.59387417 7.5859375 261.13037109 C8.5965625 260.82099609 9.6071875 260.51162109 10.6484375 260.19287109 C13.91821151 259.01018688 15.96717334 257.38541801 18.5859375 255.13037109 C19.2459375 254.80037109 19.9059375 254.47037109 20.5859375 254.13037109 C20.5859375 253.14037109 20.5859375 252.15037109 20.5859375 251.13037109 C21.2459375 251.13037109 21.9059375 251.13037109 22.5859375 251.13037109 C22.5859375 250.47037109 22.5859375 249.81037109 22.5859375 249.13037109 C24.2359375 248.47037109 25.8859375 247.81037109 27.5859375 247.13037109 C27.5859375 246.47037109 27.5859375 245.81037109 27.5859375 245.13037109 C28.2459375 245.13037109 28.9059375 245.13037109 29.5859375 245.13037109 C29.5859375 244.47037109 29.5859375 243.81037109 29.5859375 243.13037109 C30.9059375 242.80037109 32.2259375 242.47037109 33.5859375 242.13037109 C33.5859375 241.47037109 33.5859375 240.81037109 33.5859375 240.13037109 C34.2459375 240.13037109 34.9059375 240.13037109 35.5859375 240.13037109 C35.5859375 239.47037109 35.5859375 238.81037109 35.5859375 238.13037109 C36.2459375 238.13037109 36.9059375 238.13037109 37.5859375 238.13037109 C37.5859375 237.47037109 37.5859375 236.81037109 37.5859375 236.13037109 C38.2459375 236.13037109 38.9059375 236.13037109 39.5859375 236.13037109 C39.9159375 234.81037109 40.2459375 233.49037109 40.5859375 232.13037109 C41.2459375 232.13037109 41.9059375 232.13037109 42.5859375 232.13037109 C42.5859375 231.47037109 42.5859375 230.81037109 42.5859375 230.13037109 C43.2459375 230.13037109 43.9059375 230.13037109 44.5859375 230.13037109 C44.5859375 229.47037109 44.5859375 228.81037109 44.5859375 228.13037109 C45.1428125 228.06849609 45.6996875 228.00662109 46.2734375 227.94287109 C51.49719722 226.10749606 54.04865089 221.58473402 56.5390625 216.89990234 C57.64512471 215.03032704 58.89949712 213.50645388 60.3359375 211.88037109 C62.9025564 209.33558704 62.9025564 209.33558704 62.5859375 206.13037109 C63.2459375 206.13037109 63.9059375 206.13037109 64.5859375 206.13037109 C66.8632876 203.31527116 66.8632876 203.31527116 66.5859375 200.13037109 C67.2459375 200.13037109 67.9059375 200.13037109 68.5859375 200.13037109 C69.38034822 198.25653206 70.17133724 196.38124223 70.9609375 194.50537109 C71.40179688 193.46123047 71.84265625 192.41708984 72.296875 191.34130859 C73.1362254 189.25056306 73.9172646 187.13514886 74.62890625 184.99755859 C75.45761353 182.51481923 76.40228601 180.2397421 77.5234375 177.88037109 C79.34141396 173.86735639 80.65985069 169.84308029 81.8671875 165.61083984 C82.56669263 163.19678682 83.34040061 160.82253974 84.1484375 158.44287109 C84.51775391 157.33492188 84.51775391 157.33492188 84.89453125 156.20458984 C85.5 154.38818359 86.10546875 152.57177734 86.7109375 150.75537109 C87.70824016 146.62368865 88.05723212 142.62159047 88.33984375 138.38818359 C88.5859375 136.13037109 88.5859375 136.13037109 89.5859375 135.13037109 C89.84747775 130.34528339 89.7802237 125.54697951 89.7734375 120.75537109 C89.77316559 120.05285217 89.77289368 119.35033325 89.77261353 118.62652588 C89.75729518 110.06369361 89.63275125 101.53247433 88.7734375 93.00537109 C88.70342529 92.2623877 88.63341309 91.5194043 88.5612793 90.75390625 C88.05938613 86.51358454 86.97032402 83.64780812 84.5859375 80.13037109 C83.88429108 78.14237292 83.21220878 76.14338593 82.5859375 74.13037109 C82.2559375 73.47037109 81.9259375 72.81037109 81.5859375 72.13037109 C80.9259375 72.13037109 80.2659375 72.13037109 79.5859375 72.13037109 C79.740625 71.07849609 79.740625 71.07849609 79.8984375 70.00537109 C79.46374979 66.00624419 77.21347849 63.96060811 74.5859375 61.13037109 C72.55791275 58.68481183 70.73250082 56.38526382 69.1484375 53.63037109 C67.30592804 50.68235596 65.10179962 48.51721464 62.5859375 46.13037109 C61.5959375 45.14037109 61.5959375 45.14037109 60.5859375 44.13037109 C59.5959375 44.13037109 58.6059375 44.13037109 57.5859375 44.13037109 C56.5959375 42.15037109 56.5959375 42.15037109 55.5859375 40.13037109 C54.5959375 40.13037109 53.6059375 40.13037109 52.5859375 40.13037109 C52.3384375 39.51677734 52.0909375 38.90318359 51.8359375 38.27099609 C50.35531497 35.73543001 49.22026213 35.10068324 46.5859375 33.88037109 C45.8846875 33.54521484 45.1834375 33.21005859 44.4609375 32.86474609 C42.61117576 32.00880713 42.61117576 32.00880713 40.5859375 32.13037109 C40.5859375 31.47037109 40.5859375 30.81037109 40.5859375 30.13037109 C39.6165625 29.84162109 38.6471875 29.55287109 37.6484375 29.25537109 C34.5859375 28.13037109 34.5859375 28.13037109 33.5859375 26.13037109 C31.6059375 26.13037109 29.6259375 26.13037109 27.5859375 26.13037109 C27.5859375 25.47037109 27.5859375 24.81037109 27.5859375 24.13037109 C25.2759375 24.13037109 22.9659375 24.13037109 20.5859375 24.13037109 C20.5859375 23.47037109 20.5859375 22.81037109 20.5859375 22.13037109 C15.43055651 22.03017682 10.27576382 21.95828947 5.11962891 21.91064453 C3.37213243 21.8907465 1.62470056 21.86361791 -0.12255859 21.82861328 C-16.71494134 21.50495234 -29.46115604 24.65391786 -44.4140625 32.13037109 Z " fill="#0CC157" transform="translate(247.4140625,89.86962890625)"/>
<path d="M0 0 C8.91 0 17.82 0 27 0 C27 0.66 27 1.32 27 2 C27.87914062 1.9278125 28.75828125 1.855625 29.6640625 1.78125 C37.80392146 2.31501124 44.86678402 10.53788443 50.44140625 16.04296875 C52.19536423 18.24530697 53.08065765 20.35174516 54 23 C54.66 23 55.32 23 56 23 C56 24.32 56 25.64 56 27 C56.66 27 57.32 27 58 27 C61.16857343 37.97593837 62.5362685 52.40876583 57.26171875 62.90234375 C56.63716797 63.94068359 56.63716797 63.94068359 56 65 C55.55269531 65.78503906 55.10539062 66.57007813 54.64453125 67.37890625 C51.46410751 72.55455561 47.81913492 76.3416786 43 80 C42.236875 80.61875 41.47375 81.2375 40.6875 81.875 C39 83 39 83 37 83 C37 83.66 37 84.32 37 85 C32.05 85.495 32.05 85.495 27 86 C27 86.66 27 87.32 27 88 C23.47932649 88.08782542 19.95893856 88.14066643 16.4375 88.1875 C15.44685547 88.21263672 14.45621094 88.23777344 13.43554688 88.26367188 C7.40159679 88.32381091 3.36159634 87.76574108 -2 85 C-3.57505696 84.43471882 -5.15744138 83.88891076 -6.75 83.375 C-7.48734375 83.13523437 -8.2246875 82.89546875 -8.984375 82.6484375 C-9.64953125 82.43445313 -10.3146875 82.22046875 -11 82 C-14 81 -14 81 -15.25 78.875 C-16.84524294 76.25424374 -18.22741691 74.74678851 -20.4375 72.6875 C-24.04878735 69.19049389 -26.09172057 65.61242895 -28 61 C-28.51119385 59.86292603 -28.51119385 59.86292603 -29.03271484 58.70288086 C-30.67226585 54.12149034 -30.32774274 49.50725575 -30.3125 44.6875 C-30.32861328 43.68009766 -30.34472656 42.67269531 -30.36132812 41.63476562 C-30.36539447 35.39292927 -29.72186998 30.64903915 -27 25 C-26.34 24.67 -25.68 24.34 -25 24 C-24.443125 22.96875 -23.88625 21.9375 -23.3125 20.875 C-19.42641203 13.88861391 -13.59454085 9.45612291 -6.91796875 5.26171875 C-4.87672945 4.01148156 -4.87672945 4.01148156 -3 2 C-2.01 2 -1.02 2 0 2 C0 1.34 0 0.68 0 0 Z " fill="#0CC157" transform="translate(233,156)"/>
<path d="M0 0 C0.82822266 0.00128906 1.65644531 0.00257813 2.50976562 0.00390625 C7.65604486 0.078072 11.86730842 0.36766831 15.9921875 3.75390625 C17.4369306 5.52777722 18.43533588 7.2568799 19.4375 9.3125 C19.77007812 9.98152344 20.10265625 10.65054688 20.4453125 11.33984375 C22.99753554 17.32952035 22.983796 23.53490154 21.5 29.8125 C20.3125 32.375 20.3125 32.375 17.3125 34.375 C17.044375 34.99375 16.77625 35.6125 16.5 36.25 C14.6846971 39.49843676 12.58059481 40.61190102 9.3125 42.375 C6.1697437 42.91782996 3.11909859 42.89003896 -0.0625 42.8125 C-0.87460938 42.81958984 -1.68671875 42.82667969 -2.5234375 42.83398438 C-8.20029446 42.77485045 -12.48180579 41.63080082 -17.6875 39.375 C-17.6875 38.715 -17.6875 38.055 -17.6875 37.375 C-18.3475 37.375 -19.0075 37.375 -19.6875 37.375 C-23.42351297 29.48934406 -26.55710207 22.71677521 -24 14.04296875 C-23.30158788 12.12569318 -22.50359498 10.24521766 -21.6875 8.375 C-21.0275 8.375 -20.3675 8.375 -19.6875 8.375 C-19.6875 7.715 -19.6875 7.055 -19.6875 6.375 C-19.0275 6.375 -18.3675 6.375 -17.6875 6.375 C-17.6875 5.715 -17.6875 5.055 -17.6875 4.375 C-11.51910457 0.78327608 -7.08554359 -0.21251038 0 0 Z " fill="#FBFEFC" transform="translate(248.6875,178.625)"/>
<path d="M0 0 C0.33 0.66 0.66 1.32 1 2 C0.67 2.66 0.34 3.32 0 4 C-0.99 4 -1.98 4 -3 4 C-3 4.66 -3 5.32 -3 6 C-144.9 6 -286.8 6 -433 6 C-433.33 5.34 -433.66 4.68 -434 4 C-432.6487085 3.99853479 -432.6487085 3.99853479 -431.27011818 3.99703997 C-377.90192436 3.93879376 -324.53377133 3.86501656 -271.16562789 3.77101372 C-264.76056528 3.75974528 -258.35550244 3.74860687 -251.95043945 3.73754883 C-250.67528312 3.73534514 -249.40012678 3.73314146 -248.08632935 3.730871 C-227.42727937 3.69547895 -206.76822943 3.67062558 -186.10916036 3.64965298 C-164.9179797 3.62790613 -143.72683846 3.59486633 -122.53569132 3.55129844 C-109.45500704 3.52476252 -96.37437189 3.50708143 -83.29366202 3.50065396 C-74.32907928 3.49540603 -65.3645584 3.47920905 -56.40000879 3.45433434 C-51.22455541 3.44029901 -46.04921284 3.43115613 -40.87373924 3.43499184 C-36.13681199 3.43839613 -31.40012161 3.4280714 -26.66324288 3.40676448 C-24.94846755 3.40148591 -23.23366769 3.40127285 -21.51889252 3.40660437 C-19.18896285 3.41311131 -16.85981649 3.40121954 -14.52995205 3.38476086 C-12.58825214 3.38191295 -12.58825214 3.38191295 -10.60732597 3.37900752 C-6.45137653 2.94235829 -3.73292161 1.81872807 0 0 Z " fill="#95E4B6" transform="translate(467,439)"/>
<path d="M0 0 C0.66 0.33 1.32 0.66 2 1 C1.54851905 3.251385 1.08855496 5.50106998 0.625 7.75 C0.36976562 9.00296875 0.11453125 10.2559375 -0.1484375 11.546875 C-0.86378475 14.44764091 -1.69141682 16.38283364 -3 19 C-3.66 21.64 -4.32 24.28 -5 27 C123.04 27 251.08 27 383 27 C382.01 24.69 381.02 22.38 380 20 C379.5945897 17.67810464 379.23927006 15.34484656 379 13 C381.76460846 14.38230423 381.99120861 15.91132229 383.125 18.75 C383.65480469 20.04164063 383.65480469 20.04164063 384.1953125 21.359375 C385 24 385 24 385 29 C255.64 29 126.28 29 -7 29 C-6 23 -5 17 -4 11 C-3.34 11 -2.68 11 -2 11 C-2 9.02 -2 7.04 -2 5 C-1.34 5 -0.68 5 0 5 C0 3.35 0 1.7 0 0 Z " fill="#A4E8C0" transform="translate(59,393)"/>
<path d="M0 0 C0.66 0 1.32 0 2 0 C2 1.32 2 2.64 2 4 C1.34 4 0.68 4 0 4 C-0.06058594 4.67546875 -0.12117187 5.3509375 -0.18359375 6.046875 C-0.26738281 6.93890625 -0.35117188 7.8309375 -0.4375 8.75 C-0.51871094 9.63171875 -0.59992188 10.5134375 -0.68359375 11.421875 C-1 14 -1 14 -1.51147461 15.66040039 C-2.22888123 19.09613632 -2.14234654 22.51787269 -2.1328125 26.01171875 C-2.13376923 26.78054886 -2.13472595 27.54937897 -2.13571167 28.34150696 C-2.13639056 29.96115196 -2.13455663 31.58079972 -2.13037109 33.20043945 C-2.1249967 35.68902622 -2.13033714 38.1774343 -2.13671875 40.66601562 C-2.13605835 42.23958373 -2.13477797 43.81315173 -2.1328125 45.38671875 C-2.13483673 46.13459152 -2.13686096 46.88246429 -2.13894653 47.65299988 C-2.43746717 51.11665233 -2.43746717 51.11665233 -1 54 C-0.67473295 57.36109285 -0.4864054 60.7233399 -0.28125 64.09375 C-0.3214011 66.89050132 -0.3214011 66.89050132 1 68 C1.16025901 69.32955625 1.27761003 70.66436608 1.375 72 C1.70534575 75.37272352 2.33268106 78.2585392 3.5 81.4375 C5.23612468 86.2308979 5.69334392 90.93488758 6 96 C0.96263531 89.8177797 -0.03754232 82.69633858 -1.5625 75.0625 C-1.78357422 74.00998047 -2.00464844 72.95746094 -2.23242188 71.87304688 C-4.77889825 59.2175978 -5.22212951 46.48906167 -5.29516602 33.61376953 C-5.30672284 32.20448801 -5.32723313 30.79525151 -5.35668945 29.38623047 C-5.56633162 19.26953175 -4.56021698 10.55175757 -1 1 C-0.67 0.67 -0.34 0.34 0 0 Z " fill="#B7ECCD" transform="translate(163,167)"/>
<path d="M0 0 C1.06079773 0.00007553 2.12159546 0.00015106 3.21453857 0.00022888 C4.92253632 0.00797081 4.92253632 0.00797081 6.66503906 0.01586914 C7.83576965 0.01728409 9.00650024 0.01869904 10.21270752 0.02015686 C13.95205235 0.0257545 17.69133732 0.03830659 21.43066406 0.05102539 C23.96581945 0.05604069 26.50097577 0.06060355 29.03613281 0.06469727 C35.25099699 0.07572315 41.46582625 0.09245895 47.68066406 0.11352539 C47.68066406 0.77352539 47.68066406 1.43352539 47.68066406 2.11352539 C47.0130304 2.12161224 46.34539673 2.1296991 45.65753174 2.13803101 C38.71452648 2.22402689 31.77180836 2.32352861 24.82910156 2.4309082 C22.23735371 2.46921309 19.64555241 2.50406326 17.05371094 2.53540039 C13.33020923 2.58101756 9.60707591 2.63901849 5.88378906 2.69946289 C4.14298065 2.7167897 4.14298065 2.7167897 2.36700439 2.73446655 C1.28618591 2.75433624 0.20536743 2.77420593 -0.90820312 2.79467773 C-1.85862488 2.8080014 -2.80904663 2.82132507 -3.78826904 2.83505249 C-6.40459569 3.12290583 -8.06791981 3.78572157 -10.31933594 5.11352539 C-10.31933594 6.76352539 -10.31933594 8.41352539 -10.31933594 10.11352539 C-10.97933594 10.11352539 -11.63933594 10.11352539 -12.31933594 10.11352539 C-12.31933594 11.76352539 -12.31933594 13.41352539 -12.31933594 15.11352539 C-12.97933594 15.11352539 -13.63933594 15.11352539 -14.31933594 15.11352539 C-14.31933594 17.09352539 -14.31933594 19.07352539 -14.31933594 21.11352539 C-14.97933594 21.11352539 -15.63933594 21.11352539 -16.31933594 21.11352539 C-15.82433594 16.65852539 -15.82433594 16.65852539 -15.31933594 12.11352539 C-14.65933594 12.11352539 -13.99933594 12.11352539 -13.31933594 12.11352539 C-13.36058594 11.35040039 -13.40183594 10.58727539 -13.44433594 9.80102539 C-13.31933594 7.11352539 -13.31933594 7.11352539 -11.31933594 4.11352539 C-10.65933594 4.11352539 -9.99933594 4.11352539 -9.31933594 4.11352539 C-9.31933594 3.12352539 -9.31933594 2.13352539 -9.31933594 1.11352539 C-6.1451001 0.1752605 -3.30417812 -0.00786709 0 0 Z " fill="#91E3B3" transform="translate(82.3193359375,287.886474609375)"/>
<path d="M0 0 C1.33332095 2.6666419 0.67102033 4.16680303 0 7 C-0.66 7 -1.32 7 -2 7 C-2.70293295 11.71969268 -3.26783209 16.42894526 -3.71875 21.1796875 C-4 23 -4 23 -5 24 C-5.09977024 25.89111673 -5.13080672 27.78594186 -5.1328125 29.6796875 C-5.13410156 30.83597656 -5.13539063 31.99226563 -5.13671875 33.18359375 C-5.13285156 34.40175781 -5.12898437 35.61992187 -5.125 36.875 C-5.12886719 38.08542969 -5.13273438 39.29585937 -5.13671875 40.54296875 C-5.13542969 41.70183594 -5.13414062 42.86070312 -5.1328125 44.0546875 C-5.13168457 45.12187012 -5.13055664 46.18905273 -5.12939453 47.28857422 C-5.11794423 50.0972452 -5.11794423 50.0972452 -4 53 C-3.741247 56.45722763 -3.55711958 59.90856444 -3.39453125 63.37109375 C-3.52879645 66.98793121 -3.52879645 66.98793121 -2 70 C-1.67902249 72.31817089 -1.48779044 74.63779357 -1.28125 76.96875 C-1.20934163 78.99180593 -1.20934163 78.99180593 0 80 C0.23481693 82.18292774 0.41363323 84.37203174 0.5625 86.5625 C0.64628906 87.76003906 0.73007813 88.95757812 0.81640625 90.19140625 C0.87699219 91.11824219 0.93757812 92.04507813 1 93 C-2.18076482 89.81923518 -2.28653662 85.75713911 -3.125 81.4375 C-3.30675781 80.56802734 -3.48851562 79.69855469 -3.67578125 78.80273438 C-4.80743519 73.09766696 -5.17708141 67.81417298 -5 62 C-5.66 62 -6.32 62 -7 62 C-7.04994812 56.66554076 -7.08597541 51.33122175 -7.10986328 45.99658203 C-7.11983616 44.18698755 -7.13341932 42.37740882 -7.15087891 40.56787109 C-7.39315993 14.78631986 -7.39315993 14.78631986 -2.375 4.75 C-1.70597656 3.38101563 -1.70597656 3.38101563 -1.0234375 1.984375 C-0.68570313 1.32953125 -0.34796875 0.6746875 0 0 Z " fill="#74DB9F" transform="translate(143,163)"/>
<path d="M0 0 C2.21361077 0.00537759 4.42702022 0.00001609 6.640625 -0.00634766 C8.07291711 -0.00568703 9.50520909 -0.0044062 10.9375 -0.00244141 C12.21447754 -0.00131348 13.49145508 -0.00018555 14.80712891 0.00097656 C18.80377858 0.13783044 22.62795848 0.57780145 26.5859375 1.13037109 C26.5859375 1.79037109 26.5859375 2.45037109 26.5859375 3.13037109 C27.6378125 3.08912109 28.6896875 3.04787109 29.7734375 3.00537109 C33.32603923 3.12184984 35.43460391 3.60245178 38.5859375 5.13037109 C38.5859375 5.79037109 38.5859375 6.45037109 38.5859375 7.13037109 C39.5140625 7.08912109 40.4421875 7.04787109 41.3984375 7.00537109 C44.5859375 7.13037109 44.5859375 7.13037109 47.5859375 9.13037109 C47.5859375 9.79037109 47.5859375 10.45037109 47.5859375 11.13037109 C48.5553125 11.25412109 49.5246875 11.37787109 50.5234375 11.50537109 C51.5340625 11.71162109 52.5446875 11.91787109 53.5859375 12.13037109 C54.0809375 13.12037109 54.0809375 13.12037109 54.5859375 14.13037109 C53.2659375 14.13037109 51.9459375 14.13037109 50.5859375 14.13037109 C50.5859375 13.47037109 50.5859375 12.81037109 50.5859375 12.13037109 C49.2659375 12.13037109 47.9459375 12.13037109 46.5859375 12.13037109 C46.5859375 11.47037109 46.5859375 10.81037109 46.5859375 10.13037109 C45.2659375 10.13037109 43.9459375 10.13037109 42.5859375 10.13037109 C42.5859375 9.47037109 42.5859375 8.81037109 42.5859375 8.13037109 C40.9359375 8.13037109 39.2859375 8.13037109 37.5859375 8.13037109 C37.5859375 7.47037109 37.5859375 6.81037109 37.5859375 6.13037109 C36.7815625 6.15099609 35.9771875 6.17162109 35.1484375 6.19287109 C32.5859375 6.13037109 32.5859375 6.13037109 31.5859375 5.13037109 C30.25811872 4.92433025 28.92297855 4.7640752 27.5859375 4.63037109 C23.69704861 4.2414822 23.69704861 4.2414822 22.5859375 3.13037109 C20.28595748 2.87655858 18.01936895 2.69788221 15.7109375 2.56787109 C14.98656494 2.5254126 14.26219238 2.4829541 13.51586914 2.43920898 C1.88669601 1.84805638 -9.7742662 2.04674262 -21.4140625 2.13037109 C-21.4140625 2.79037109 -21.4140625 3.45037109 -21.4140625 4.13037109 C-21.99414062 4.19095703 -22.57421875 4.25154297 -23.171875 4.31396484 C-27.61499113 4.79053671 -32.01311673 5.34045775 -36.4140625 6.13037109 C-34.10196118 3.81826978 -32.99614773 3.66852221 -29.8515625 3.06787109 C-26.8463428 2.66559244 -26.8463428 2.66559244 -24.4140625 1.13037109 C-16.41045494 -0.33799102 -8.10750952 -0.02344253 0 0 Z " fill="#3ACD77" transform="translate(247.4140625,89.86962890625)"/>
<path d="M0 0 C2 1 2 1 3.0625 3.375 C4.12209671 7.47210727 4.4718903 11.39640203 4.75390625 15.609375 C4.85903395 18.01246236 4.85903395 18.01246236 6 20 C6.31069675 24.99171822 6.29454512 29.99942916 6.3125 35 C6.31578308 35.73509796 6.31906616 36.47019592 6.32244873 37.22756958 C6.34246554 51.10922962 5.81788151 65.57153509 2 79 C1.01 79.99 1.01 79.99 0 81 C0.14017826 78.02046641 0.28686342 75.04150696 0.4375 72.0625 C0.49647461 70.78729492 0.49647461 70.78729492 0.55664062 69.48632812 C0.59853516 68.67744141 0.64042969 67.86855469 0.68359375 67.03515625 C0.72025146 66.2862915 0.75690918 65.53742676 0.79467773 64.76586914 C1 63 1 63 2 62 C2.23701239 59.14122091 2.42219182 56.30116703 2.5625 53.4375 C2.60568359 52.63119141 2.64886719 51.82488281 2.69335938 50.99414062 C2.79975262 48.99631195 2.90040888 46.9981793 3 45 C3.66 45 4.32 45 5 45 C5.71600945 25.91015384 5.71600945 25.91015384 1 9 C0.76807135 7.48530552 0.58784762 5.96245438 0.4375 4.4375 C0.35371094 3.61121094 0.26992188 2.78492188 0.18359375 1.93359375 C0.12300781 1.29550781 0.06242187 0.65742188 0 0 Z " fill="#9DE6BB" transform="translate(354,168)"/>
<path d="M0 0 C0.66 0.33 1.32 0.66 2 1 C0.93849644 5.06909699 -0.32852439 8.82689028 -2 12.6875 C-6.80017389 24.67266251 -6.4028979 37.54159522 -6.625 50.25 C-6.66326841 52.07423558 -6.70232496 53.89845481 -6.7421875 55.72265625 C-6.83720536 60.14830151 -6.92157963 64.57403081 -7 69 C-6.34 69 -5.68 69 -5 69 C-4.4660256 72.08120684 -3.95014449 75.16517859 -3.4375 78.25 C-3.28603516 79.12269531 -3.13457031 79.99539062 -2.97851562 80.89453125 C-2.83994141 81.73886719 -2.70136719 82.58320313 -2.55859375 83.453125 C-2.42767334 84.22817383 -2.29675293 85.00322266 -2.16186523 85.80175781 C-1.99177226 88.11173847 -2.31440908 89.80085213 -3 92 C-8.18135687 78.10454294 -8.29574381 64.49675445 -8.20581055 49.84814453 C-8.18729367 46.71508839 -8.18530313 43.58232447 -8.18554688 40.44921875 C-8.18064002 38.46093492 -8.17481538 36.4726531 -8.16796875 34.484375 C-8.16685593 33.54599792 -8.1657431 32.60762085 -8.16459656 31.64080811 C-8.15821671 30.78190979 -8.15183685 29.92301147 -8.14526367 29.03808594 C-8.14145187 28.28009705 -8.13764008 27.52210815 -8.13371277 26.7411499 C-8 25 -8 25 -7 24 C-6.855625 22.96875 -6.71125 21.9375 -6.5625 20.875 C-6.0082083 17.05654608 -5.12585988 13.67780895 -4 10 C-3.34 10 -2.68 10 -2 10 C-1.34 6.7 -0.68 3.4 0 0 Z " fill="#E1F7EA" transform="translate(143,156)"/>
<path d="M0 0 C0.66 0.33 1.32 0.66 2 1 C1.67 1.66 1.34 2.32 1 3 C0.34 3 -0.32 3 -1 3 C-1 3.66 -1 4.32 -1 5 C-2.65 5.66 -4.3 6.32 -6 7 C-6 7.66 -6 8.32 -6 9 C-6.99 9 -7.98 9 -9 9 C-9 9.66 -9 10.32 -9 11 C-15.625 14 -15.625 14 -19 14 C-19 14.66 -19 15.32 -19 16 C-27.32026195 17.2558886 -36.07860642 18.4254675 -44 15 C-39.44658012 13.47430866 -34.66221067 13.98386531 -29.93164062 14.12695312 C-25.74755484 14.19361616 -22.80066208 13.68551101 -19 12 C-17.68 12 -16.36 12 -15 12 C-14.67 11.01 -14.34 10.02 -14 9 C-12.02 8.67 -10.04 8.34 -8 8 C-8 7.34 -8 6.68 -8 6 C-7.360625 5.71125 -6.72125 5.4225 -6.0625 5.125 C-3.84793921 4.17176549 -3.84793921 4.17176549 -3 2 C-2.01 2 -1.02 2 0 2 C0 1.34 0 0.68 0 0 Z " fill="#4BD183" transform="translate(279,360)"/>
<path d="M0 0 C0.82822266 0.00128906 1.65644531 0.00257813 2.50976562 0.00390625 C7.65604486 0.078072 11.86730842 0.36766831 15.9921875 3.75390625 C17.4369306 5.52777722 18.43533588 7.2568799 19.4375 9.3125 C19.77007812 9.98152344 20.10265625 10.65054688 20.4453125 11.33984375 C23.01745241 17.37626219 23.07255142 23.66731683 21.3125 29.9375 C20.9825 30.741875 20.6525 31.54625 20.3125 32.375 C19.03349555 29.8169911 19.38644394 27.76238819 19.5300293 24.96533203 C19.84904497 17.73376347 19.54401376 12.89333118 14.91796875 6.9765625 C10.02841659 2.09890706 4.57102755 2.24238031 -2 1.8125 C-3.25425781 1.72871094 -4.50851563 1.64492187 -5.80078125 1.55859375 C-7.22970703 1.46771484 -7.22970703 1.46771484 -8.6875 1.375 C-8.6875 2.035 -8.6875 2.695 -8.6875 3.375 C-11.6875 4.375 -14.6875 5.375 -17.6875 6.375 C-17.6875 5.715 -17.6875 5.055 -17.6875 4.375 C-11.51910457 0.78327608 -7.08554359 -0.21251038 0 0 Z " fill="#9FE6BD" transform="translate(248.6875,178.625)"/>
<path d="M0 0 C1.48558914 0.00666183 1.48558914 0.00666183 3.00119019 0.01345825 C4.68270676 0.01368484 4.68270676 0.01368484 6.39819336 0.01391602 C7.61280243 0.02423859 8.8274115 0.03456116 10.0788269 0.04519653 C11.31897552 0.04802643 12.55912415 0.05085632 13.83685303 0.05377197 C17.13476073 0.06308729 20.43247413 0.08106014 23.73031616 0.10317993 C27.0951601 0.12363429 30.46003247 0.1327728 33.82492065 0.14285278 C40.42786163 0.16494385 47.03067212 0.19844421 53.6335144 0.24050903 C56.98670343 5.92294614 58.09829018 8.61745426 57.6335144 15.24050903 C56.9735144 15.24050903 56.3135144 15.24050903 55.6335144 15.24050903 C55.3035144 16.23050903 54.9735144 17.22050903 54.6335144 18.24050903 C53.30019345 15.57386713 53.96249407 14.073706 54.6335144 11.24050903 C55.2935144 11.24050903 55.9535144 11.24050903 56.6335144 11.24050903 C56.6335144 10.25050903 56.6335144 9.26050903 56.6335144 8.24050903 C55.9735144 8.24050903 55.3135144 8.24050903 54.6335144 8.24050903 C54.5097644 7.60113403 54.3860144 6.96175903 54.2585144 6.30300903 C54.0522644 5.62238403 53.8460144 4.94175903 53.6335144 4.24050903 C52.9735144 3.91050903 52.3135144 3.58050903 51.6335144 3.24050903 C51.6335144 2.58050903 51.6335144 1.92050903 51.6335144 1.24050903 C50.9761882 1.25303711 50.318862 1.26556519 49.64161682 1.2784729 C42.81250645 1.40857437 35.98338865 1.53828057 29.15426636 1.66775513 C26.60413421 1.71615583 24.05400399 1.764658 21.50387573 1.81326294 C17.84266653 1.88302738 14.18145061 1.95242929 10.52023315 2.02175903 C9.37640671 2.04363281 8.23258026 2.06550659 7.05409241 2.08804321 C5.46278252 2.11807434 5.46278252 2.11807434 3.83932495 2.14871216 C2.43700874 2.1753595 2.43700874 2.1753595 1.00636292 2.20254517 C-0.78440211 2.23119612 -2.57549138 2.24050903 -4.3664856 2.24050903 C-2.3664856 0.24050903 -2.3664856 0.24050903 0 0 Z " fill="#2ECA6F" transform="translate(78.36648559570313,289.7594909667969)"/>
<path d="M0 0 C0.33 0 0.66 0 1 0 C1.02465504 4.39656173 1.04283842 8.7930872 1.05493164 13.18969727 C1.05997121 14.68644918 1.06680287 16.18319616 1.07543945 17.67993164 C1.08752159 19.82699807 1.09323191 21.97399962 1.09765625 24.12109375 C1.10289307 25.4145874 1.10812988 26.70808105 1.11352539 28.04077148 C1 31 1 31 0 32 C-0.16042155 33.66363088 -0.27767018 35.33148878 -0.375 37 C-0.75327928 41.63542231 -1.63895154 45.58306511 -3.2421875 49.93359375 C-3.94850684 51.85958825 -4.51177824 53.83638073 -5.0625 55.8125 C-5.83378394 58.4348654 -6.67129852 60.62731879 -8 63 C-8 60.69 -8 58.38 -8 56 C-7.34 56 -6.68 56 -6 56 C-6 53.69 -6 51.38 -6 49 C-5.34 49 -4.68 49 -4 49 C-4 45.7 -4 42.4 -4 39 C-3.34 39 -2.68 39 -2 39 C-2.020625 37.741875 -2.04125 36.48375 -2.0625 35.1875 C-2.10886083 32.35948913 -1.91692961 30.75078884 -1 28 C-0.84929203 25.86338742 -0.7514034 23.72287876 -0.68359375 21.58203125 C-0.64169922 20.32841797 -0.59980469 19.07480469 -0.55664062 17.78320312 C-0.51732422 16.47287109 -0.47800781 15.16253906 -0.4375 13.8125 C-0.39429008 12.47720022 -0.350675 11.14191348 -0.30664062 9.80664062 C-0.20043498 6.53786703 -0.09839003 3.26901667 0 0 Z " fill="#99E5B9" transform="translate(336,194)"/>
<path d="M0 0 C5.62248478 5.62248478 6.54063593 13.47131809 8 21 C8.66 21 9.32 21 10 21 C10 22.65 10 24.3 10 26 C10.66 26 11.32 26 12 26 C12.144375 27.051875 12.28875 28.10375 12.4375 29.1875 C12.87526966 32.15460549 13.37804866 35.06794366 14 38 C14.66 38 15.32 38 16 38 C16.33 41.3 16.66 44.6 17 48 C14.60025827 45.60025827 14.36028843 44.08027746 13.5625 40.8125 C12.39786072 36.31781173 10.91903985 32.23787968 9 28 C8.23281913 25.99813741 7.4952856 23.98705411 6.76171875 21.97265625 C6.03494332 20.09049424 5.17620983 18.26088742 4.3125 16.4375 C2.89116312 12.71495102 2.75820495 9.94931919 3 6 C2.34 6 1.68 6 1 6 C0.67 4.02 0.34 2.04 0 0 Z " fill="#ADEAC7" transform="translate(438,336)"/>
<path d="M0 0 C0.66 0.33 1.32 0.66 2 1 C1.01 3.97 0.02 6.94 -1 10 C-0.34 10 0.32 10 1 10 C1 11.32 1 12.64 1 14 C1.66 14 2.32 14 3 14 C3 14.66 3 15.32 3 16 C3.804375 15.979375 4.60875 15.95875 5.4375 15.9375 C8 16 8 16 9 17 C11.73701178 17.16010481 14.4516759 17.25946828 17.19140625 17.31640625 C18.42116432 17.3475779 18.42116432 17.3475779 19.67576599 17.37937927 C22.30458901 17.44496494 24.93351504 17.50380126 27.5625 17.5625 C29.34050561 17.60567667 31.11850065 17.64929067 32.89648438 17.69335938 C37.26421634 17.80065543 41.63205227 17.90189704 46 18 C46 18.33 46 18.66 46 19 C40.41330092 19.09914961 34.82711814 19.17160105 29.23974609 19.21972656 C27.34056675 19.23979629 25.44144885 19.26705851 23.54248047 19.30175781 C20.80681161 19.35048109 18.07196229 19.37301507 15.3359375 19.390625 C14.49195404 19.41127014 13.64797058 19.43191528 12.77841187 19.45318604 C7.25902656 19.45526948 4.21009505 18.65969466 0 15 C0 14.34 0 13.68 0 13 C-0.66 13 -1.32 13 -2 13 C-2.05447047 11.58376784 -2.09300508 10.16691809 -2.125 8.75 C-2.14820313 7.96109375 -2.17140625 7.1721875 -2.1953125 6.359375 C-1.9828378 3.79268059 -1.28654105 2.2083933 0 0 Z " fill="#39CD77" transform="translate(361,292)"/>
<path d="M0 0 C0.33 1.32 0.66 2.64 1 4 C0.34 4 -0.32 4 -1 4 C-1 5.32 -1 6.64 -1 8 C-1.66 8 -2.32 8 -3 8 C-3.185625 9.36125 -3.185625 9.36125 -3.375 10.75 C-4.14792156 16.18285445 -5.0849494 21.58965229 -6 27 C-6.66 27 -7.32 27 -8 27 C-8 28.98 -8 30.96 -8 33 C-8.66 33 -9.32 33 -10 33 C-10.33 33.66 -10.66 34.32 -11 35 C-10.22095672 23.47835991 -10.22095672 23.47835991 -8 18 C-7.34 18 -6.68 18 -6 18 C-6 16.02 -6 14.04 -6 12 C-5.34 12 -4.68 12 -4 12 C-4.12375 10.9790625 -4.12375 10.9790625 -4.25 9.9375 C-3.90053135 5.83124335 -2.18150968 3.47678105 0 0 Z " fill="#C1EFD4" transform="translate(38,391)"/>
<path d="M0 0 C0.495 0.99 0.495 0.99 1 2 C0.34 2 -0.32 2 -1 2 C-1 2.66 -1 3.32 -1 4 C-14.86 4 -28.72 4 -43 4 C-43 5.65 -43 7.3 -43 9 C-43.66 9 -44.32 9 -45 9 C-44.938125 9.7425 -44.87625 10.485 -44.8125 11.25 C-45.03094296 14.45383006 -45.90250005 15.64031256 -48 18 C-48 16.02 -48 14.04 -48 12 C-47.34 12 -46.68 12 -46 12 C-45.7834375 10.88625 -45.7834375 10.88625 -45.5625 9.75 C-45.09968589 7.48735322 -44.56013482 5.2405393 -44 3 C-30.14 3 -16.28 3 -2 3 C-2 2.34 -2 1.68 -2 1 C-1.34 0.67 -0.68 0.34 0 0 Z " fill="#AFEAC7" transform="translate(132,308)"/>
<path d="M0 0 C3.96 0.33 7.92 0.66 12 1 C12 1.66 12 2.32 12 3 C13.051875 2.95875 14.10375 2.9175 15.1875 2.875 C18.74010173 2.99147875 20.84866641 3.47208068 24 5 C24 5.66 24 6.32 24 7 C24.928125 6.95875 25.85625 6.9175 26.8125 6.875 C30 7 30 7 33 9 C33 9.66 33 10.32 33 11 C33.969375 11.12375 34.93875 11.2475 35.9375 11.375 C36.948125 11.58125 37.95875 11.7875 39 12 C39.495 12.99 39.495 12.99 40 14 C38.68 14 37.36 14 36 14 C36 13.34 36 12.68 36 12 C34.68 12 33.36 12 32 12 C32 11.34 32 10.68 32 10 C30.68 10 29.36 10 28 10 C28 9.34 28 8.68 28 8 C26.35 8 24.7 8 23 8 C23 7.34 23 6.68 23 6 C22.195625 6.020625 21.39125 6.04125 20.5625 6.0625 C18 6 18 6 17 5 C15.67218122 4.79395915 14.33704105 4.6337041 13 4.5 C9.11111111 4.11111111 9.11111111 4.11111111 8 3 C6.65252916 2.76924918 5.29622435 2.58846937 3.9375 2.4375 C2.638125 2.293125 1.33875 2.14875 0 2 C0 1.34 0 0.68 0 0 Z " fill="#6BD999" transform="translate(262,90)"/>
<path d="M0 0 C0.66 0 1.32 0 2 0 C2 1.32 2 2.64 2 4 C1.34 4 0.68 4 0 4 C-0.33 7.3 -0.66 10.6 -1 14 C-1.66 14 -2.32 14 -3 14 C-3.33 25.22 -3.66 36.44 -4 48 C-4.33 48 -4.66 48 -5 48 C-5.10047476 43.55669698 -5.17220613 39.1140326 -5.21972656 34.66992188 C-5.23957976 33.16492161 -5.2666719 31.65999565 -5.30175781 30.15527344 C-5.53794159 19.74929405 -4.72964957 10.86448855 -1 1 C-0.67 0.67 -0.34 0.34 0 0 Z " fill="#64D794" transform="translate(163,167)"/>
<path d="M0 0 C0.99 0.495 0.99 0.495 2 1 C2.37890625 3.25 2.37890625 3.25 2.5625 6 C2.53480538 9.30759619 2.53480538 9.30759619 4 12 C4.08700342 13.63472882 4.10701063 15.27314055 4.09765625 16.91015625 C4.09443359 17.89951172 4.09121094 18.88886719 4.08789062 19.90820312 C4.07951172 20.94912109 4.07113281 21.99003906 4.0625 23.0625 C4.05798828 24.10728516 4.05347656 25.15207031 4.04882812 26.22851562 C4.03699913 28.8190666 4.02051689 31.40950559 4 34 C3.34 34 2.68 34 2 34 C1.97494385 33.43192627 1.9498877 32.86385254 1.92407227 32.27856445 C1.44375919 21.50365004 0.93708429 10.74656243 0 0 Z " fill="#46D07F" transform="translate(335,181)"/>
<path d="M0 0 C1 2 1 2 0.51171875 3.91796875 C0.10373047 5.04138672 0.10373047 5.04138672 -0.3125 6.1875 C-1.28121883 8.91989525 -2.1460902 11.56349076 -2.875 14.375 C-4.45446547 19.46438875 -6.72135365 24.19049071 -9 29 C-9.66 29 -10.32 29 -11 29 C-11.33 29.66 -11.66 30.32 -12 31 C-12 29.68 -12 28.36 -12 27 C-11.34 27 -10.68 27 -10 27 C-9.01 23.04 -8.02 19.08 -7 15 C-6.34 15 -5.68 15 -5 15 C-5 13.35 -5 11.7 -5 10 C-4.34 10 -3.68 10 -3 10 C-3 8.35 -3 6.7 -3 5 C-2.34 5 -1.68 5 -1 5 C-0.67 3.35 -0.34 1.7 0 0 Z " fill="#65D794" transform="translate(348,265)"/>
<path d="M0 0 C1.16180608 3.92759816 0.75984959 6.97279717 0 11 C-0.33 11.33 -0.66 11.66 -1 12 C-1.09909302 14.33160055 -1.12970504 16.66629942 -1.125 19 C-1.12757813 20.27875 -1.13015625 21.5575 -1.1328125 22.875 C-1.35860893 25.86687244 -1.35860893 25.86687244 0 27 C0.23363881 28.84891946 0.41303635 30.70488031 0.5625 32.5625 C0.64628906 33.57441406 0.73007813 34.58632812 0.81640625 35.62890625 C0.87699219 36.41136719 0.93757812 37.19382813 1 38 C-3.38869596 33.61130404 -3.28001723 28.64791768 -3.32226562 22.77539062 C-3.31904297 21.75638672 -3.31582031 20.73738281 -3.3125 19.6875 C-3.32861328 18.68009766 -3.34472656 17.67269531 -3.36132812 16.63476562 C-3.36540858 10.37127239 -2.58743796 5.71420996 0 0 Z " fill="#45D07F" transform="translate(206,181)"/>
<path d="M0 0 C2.47552876 3.71329314 2.40718554 6.81407681 2.5625 11.125 C2.32823765 15.94808485 2.32823765 15.94808485 4 20 C4.32097751 22.31817089 4.51220956 24.63779357 4.71875 26.96875 C4.79065837 28.99180593 4.79065837 28.99180593 6 30 C6.23481693 32.18292774 6.41363323 34.37203174 6.5625 36.5625 C6.64628906 37.76003906 6.73007813 38.95757812 6.81640625 40.19140625 C6.87699219 41.11824219 6.93757812 42.04507813 7 43 C3.98856889 39.98856889 3.74269305 36.23791136 2.9375 32.1875 C2.7612207 31.31125977 2.58494141 30.43501953 2.40332031 29.53222656 C0.56690355 19.73916099 0.19962411 9.94128052 0 0 Z " fill="#3ECE7A" transform="translate(137,213)"/>
<path d="M0 0 C1.98019743 0.47488898 3.95913635 0.95502859 5.9375 1.4375 C7.03964844 1.70433594 8.14179688 1.97117188 9.27734375 2.24609375 C12 3 12 3 13 4 C14.63256758 4.15714654 16.27135338 4.25085414 17.91015625 4.31640625 C18.89951172 4.35830078 19.88886719 4.40019531 20.90820312 4.44335938 C21.94912109 4.48267578 22.99003906 4.52199219 24.0625 4.5625 C25.10728516 4.60568359 26.15207031 4.64886719 27.22851562 4.69335938 C29.81886884 4.79981225 32.40932186 4.9018276 35 5 C35 4.34 35 3.68 35 3 C36.32 3.33 37.64 3.66 39 4 C38.34 4 37.68 4 37 4 C37 4.66 37 5.32 37 6 C27.43 6 17.86 6 8 6 C8 5.34 8 4.68 8 4 C6.68 4 5.36 4 4 4 C4 3.34 4 2.68 4 2 C2.68 2 1.36 2 0 2 C0 1.34 0 0.68 0 0 Z " fill="#ABE9C5" transform="translate(225,239)"/>
<path d="M0 0 C0.66 0.33 1.32 0.66 2 1 C1.67 1.99 1.34 2.98 1 4 C0.34 4 -0.32 4 -1 4 C-1 11.59 -1 19.18 -1 27 C-4.4779739 23.5220261 -5.13907992 19.40643932 -5.3125 14.625 C-5.22444281 9.90993792 -3.87591696 6.29897636 -2 2 C-1.34 2 -0.68 2 0 2 C0 1.34 0 0.68 0 0 Z " fill="#A0E7BE" transform="translate(229,185)"/>
<path d="M0 0 C0.66 0 1.32 0 2 0 C0.76778243 32.23221757 0.76778243 32.23221757 -3 36 C-2.85982174 33.02046641 -2.71313658 30.04150696 -2.5625 27.0625 C-2.52318359 26.21236328 -2.48386719 25.36222656 -2.44335938 24.48632812 C-2.40146484 23.67744141 -2.35957031 22.86855469 -2.31640625 22.03515625 C-2.27974854 21.2862915 -2.24309082 20.53742676 -2.20532227 19.76586914 C-2 18 -2 18 -1 17 C-0.76298761 14.14122091 -0.57780818 11.30116703 -0.4375 8.4375 C-0.39431641 7.63119141 -0.35113281 6.82488281 -0.30664062 5.99414062 C-0.20024738 3.99631195 -0.09959112 1.9981793 0 0 Z " fill="#62D793" transform="translate(357,213)"/>
<path d="M0 0 C7.26 0 14.52 0 22 0 C22 0.66 22 1.32 22 2 C15.92972642 4.1583195 10.40629424 4.20852314 4 4 C4 3.34 4 2.68 4 2 C2.68 1.67 1.36 1.34 0 1 C0 0.67 0 0.34 0 0 Z " fill="#5ED690" transform="translate(237,220)"/>
<path d="M0 0 C0.66 0.33 1.32 0.66 2 1 C1.67 1.66 1.34 2.32 1 3 C0.34 3 -0.32 3 -1 3 C-1 3.66 -1 4.32 -1 5 C-2.65 5.66 -4.3 6.32 -6 7 C-6 7.66 -6 8.32 -6 9 C-6.99 9 -7.98 9 -9 9 C-9 9.66 -9 10.32 -9 11 C-13.455 12.485 -13.455 12.485 -18 14 C-17.67 13.34 -17.34 12.68 -17 12 C-16.34 12 -15.68 12 -15 12 C-14.67 11.01 -14.34 10.02 -14 9 C-12.02 8.67 -10.04 8.34 -8 8 C-8 7.34 -8 6.68 -8 6 C-7.360625 5.71125 -6.72125 5.4225 -6.0625 5.125 C-3.84793921 4.17176549 -3.84793921 4.17176549 -3 2 C-2.01 2 -1.02 2 0 2 C0 1.34 0 0.68 0 0 Z " fill="#96E4B6" transform="translate(279,360)"/>
<path d="M0 0 C1.21209648 4.12296453 0.95897147 7.83889772 0 12 C-1.4375 14.625 -1.4375 14.625 -3 17 C-3.5259375 18.5778125 -3.5259375 18.5778125 -4.0625 20.1875 C-5 23 -5 23 -7 25 C-5.86832684 16.39928399 -2.78595625 8.18004175 0 0 Z " fill="#3ECE7A" transform="translate(332,244)"/>
<path d="M0 0 C0.99 0.33 1.98 0.66 3 1 C3.94921875 3.51171875 3.94921875 3.51171875 4.6875 6.6875 C5.06455078 8.24017578 5.06455078 8.24017578 5.44921875 9.82421875 C5.99200113 12.95387884 6.09977125 15.83107515 6 19 C1.16434272 13.0653297 0.54829834 7.43088543 0 0 Z " fill="#A4E8C0" transform="translate(163,244)"/>
<path d="M0 0 C0.68359375 1.63671875 0.68359375 1.63671875 1 4 C-2.2781113 11.87857935 -7.17451036 17.96509336 -14 23 C-14.33 22.34 -14.66 21.68 -15 21 C-14.45730469 20.5875 -13.91460937 20.175 -13.35546875 19.75 C-8.15741191 15.55409106 -5.80759056 12.43954138 -4 6 C-3.34 6 -2.68 6 -2 6 C-2 4.68 -2 3.36 -2 2 C-1.34 2 -0.68 2 0 2 C0 1.34 0 0.68 0 0 Z " fill="#68D897" transform="translate(290,213)"/>
<path d="M0 0 C0.66 0.33 1.32 0.66 2 1 C0.93849644 5.06909699 -0.32852439 8.82689028 -2 12.6875 C-4.32174636 18.30993802 -5.21574326 23.99424442 -6 30 C-8.00910105 23.30803184 -6.06818311 16.48030707 -4 10 C-3.34 10 -2.68 10 -2 10 C-1.34 6.7 -0.68 3.4 0 0 Z " fill="#B7ECCD" transform="translate(143,156)"/>
<path d="M0 0 C0.78632813 0.16371094 1.57265625 0.32742188 2.3828125 0.49609375 C6.90846849 1.12655771 11.31329568 1.10715524 15.875 1.0625 C16.75414062 1.05798828 17.63328125 1.05347656 18.5390625 1.04882812 C20.69273803 1.03712337 22.84637817 1.01919069 25 1 C25 1.33 25 1.66 25 2 C18.38190423 4.46254726 11.99560484 4.18935472 5 4 C5 3.34 5 2.68 5 2 C3.35 2 1.7 2 0 2 C0 1.34 0 0.68 0 0 Z " fill="#C7F0D8" transform="translate(235,375)"/>
<path d="M0 0 C3.98947984 3.98947984 5.03192529 8.01958004 6.3359375 13.3359375 C7.00068695 16.1787686 7.00068695 16.1787686 8.25 19.5625 C9 22 9 22 8 24 C4.12280898 18.00797751 2.7136616 13.1584599 3 6 C2.34 6 1.68 6 1 6 C0.67 4.02 0.34 2.04 0 0 Z " fill="#79DDA2" transform="translate(438,336)"/>
<path d="M0 0 C8.91 0 17.82 0 27 0 C27 0.33 27 0.66 27 1 C19.74 1 12.48 1 5 1 C5 1.66 5 2.32 5 3 C0.545 3.495 0.545 3.495 -4 4 C-3.67 3.34 -3.34 2.68 -3 2 C-2.01 2 -1.02 2 0 2 C0 1.34 0 0.68 0 0 Z " fill="#7FDEA7" transform="translate(233,156)"/>
<path d="M0 0 C1.25631019 3.58218177 0.7448506 6.00647476 -0.25 9.625 C-0.62898438 11.06746094 -0.62898438 11.06746094 -1.015625 12.5390625 C-2 15 -2 15 -5 17 C-4.67 13.37 -4.34 9.74 -4 6 C-3.34 6 -2.68 6 -2 6 C-2 4.35 -2 2.7 -2 1 C-1.34 0.67 -0.68 0.34 0 0 Z " fill="#8DE2B0" transform="translate(61,322)"/>
<path d="M0 0 C0.66 0.33 1.32 0.66 2 1 C1.57305989 3.21039917 1.13296022 5.41825861 0.6875 7.625 C0.44386719 8.85476563 0.20023438 10.08453125 -0.05078125 11.3515625 C-0.97467614 14.90266468 -2.2389497 17.79360589 -4 21 C-5.2380014 17.42355152 -4.74926071 14.66305234 -4 11 C-3.34 11 -2.68 11 -2 11 C-2 9.02 -2 7.04 -2 5 C-1.34 5 -0.68 5 0 5 C0 3.35 0 1.7 0 0 Z " fill="#68D897" transform="translate(59,393)"/>
<path d="M0 0 C0.99 0.495 0.99 0.495 2 1 C2 2.65 2 4.3 2 6 C2.66 6 3.32 6 4 6 C4 7.98 4 9.96 4 12 C4.66 12 5.32 12 6 12 C6.33 14.97 6.66 17.94 7 21 C1.28924429 15.28924429 0.61849225 7.7930023 0 0 Z " fill="#81DFA8" transform="translate(455,385)"/>
<path d="M0 0 C0.66 0.33 1.32 0.66 2 1 C0.02 1.99 0.02 1.99 -2 3 C-2 4.65 -2 6.3 -2 8 C-2.66 8 -3.32 8 -4 8 C-4 9.65 -4 11.3 -4 13 C-4.66 13 -5.32 13 -6 13 C-6 14.98 -6 16.96 -6 19 C-6.66 19 -7.32 19 -8 19 C-7.505 14.545 -7.505 14.545 -7 10 C-6.34 10 -5.68 10 -5 10 C-5.103125 9.278125 -5.20625 8.55625 -5.3125 7.8125 C-4.87550935 3.87958411 -2.89917803 2.53678077 0 0 Z " fill="#7BDDA4" transform="translate(74,290)"/>
<path d="M0 0 C2 1 2 1 3.125 3.375 C4 6 4 6 4 9 C4.66 9 5.32 9 6 9 C6 10.32 6 11.64 6 13 C6.66 13 7.32 13 8 13 C8 14.32 8 15.64 8 17 C8.66 17 9.32 17 10 17 C9.67 17.99 9.34 18.98 9 20 C9 19.34 9 18.68 9 18 C8.34 18 7.68 18 7 18 C7 17.34 7 16.68 7 16 C6.34 16 5.68 16 5 16 C5 14.02 5 12.04 5 10 C3.68 9.67 2.36 9.34 1 9 C0.67 6.03 0.34 3.06 0 0 Z " fill="#8EE2B1" transform="translate(169,264)"/>
<path d="M0 0 C0.66 0 1.32 0 2 0 C1.65954675 8.49430869 -0.25658428 15.973914 -3 24 C-3.33 24 -3.66 24 -4 24 C-4 21.69 -4 19.38 -4 17 C-3.34 17 -2.68 17 -2 17 C-2 14.69 -2 12.38 -2 10 C-1.34 10 -0.68 10 0 10 C0 6.7 0 3.4 0 0 Z " fill="#C6F0D7" transform="translate(332,233)"/>
<path d="M0 0 C0.66 0.33 1.32 0.66 2 1 C1.34 2.32 0.68 3.64 0 5 C-0.99 5 -1.98 5 -3 5 C-3 6.32 -3 7.64 -3 9 C-3.66 9 -4.32 9 -5 9 C-5 9.66 -5 10.32 -5 11 C-5.66 11 -6.32 11 -7 11 C-7 11.66 -7 12.32 -7 13 C-8.32 13.33 -9.64 13.66 -11 14 C-11 13.34 -11 12.68 -11 12 C-10.34 12 -9.68 12 -9 12 C-9 11.34 -9 10.68 -9 10 C-8.34 10 -7.68 10 -7 10 C-7 9.34 -7 8.68 -7 8 C-6.34 8 -5.68 8 -5 8 C-4.67 6.68 -4.34 5.36 -4 4 C-3.34 4 -2.68 4 -2 4 C-2 3.34 -2 2.68 -2 2 C-1.34 2 -0.68 2 0 2 C0 1.34 0 0.68 0 0 Z " fill="#64D794" transform="translate(292,318)"/>
<path d="M0 0 C1.43088528 2.86177057 0.59991697 4.93375773 0 8 C-0.66 8 -1.32 8 -2 8 C-2.66 10.97 -3.32 13.94 -4 17 C-4.66 17 -5.32 17 -6 17 C-6 18.98 -6 20.96 -6 23 C-6.33 23 -6.66 23 -7 23 C-7 20.69 -7 18.38 -7 16 C-6.34 16 -5.68 16 -5 16 C-5.04125 15.29875 -5.0825 14.5975 -5.125 13.875 C-4.98331668 10.61628372 -4.13265314 8.0440053 -3 5 C-2.34 5 -1.68 5 -1 5 C-0.67 3.35 -0.34 1.7 0 0 Z " fill="#5AD58D" transform="translate(83,326)"/>
<path d="M0 0 C2 1 2 1 3.0859375 3.4453125 C4.2429102 7.94465079 4.45773839 12.24742872 4.625 16.875 C4.66367187 17.75414062 4.70234375 18.63328125 4.7421875 19.5390625 C4.83581034 21.69238793 4.91896459 23.84616414 5 26 C4.67 26 4.34 26 4 26 C3.80083984 24.28490234 3.80083984 24.28490234 3.59765625 22.53515625 C3.4194969 21.0442438 3.24109918 19.55335982 3.0625 18.0625 C2.93198242 16.93038086 2.93198242 16.93038086 2.79882812 15.77539062 C2.65675901 12.07812542 2.65675901 12.07812542 1 9 C0.76807135 7.48530552 0.58784762 5.96245438 0.4375 4.4375 C0.35371094 3.61121094 0.26992188 2.78492188 0.18359375 1.93359375 C0.12300781 1.29550781 0.06242187 0.65742188 0 0 Z " fill="#7CDDA4" transform="translate(354,168)"/>
<path d="M0 0 C0.66 0.33 1.32 0.66 2 1 C1.01 3.97 0.02 6.94 -1 10 C-0.34 10 0.32 10 1 10 C1 11.32 1 12.64 1 14 C1.66 14 2.32 14 3 14 C2.67 14.99 2.34 15.98 2 17 C1.34 15.68 0.68 14.36 0 13 C-0.66 13 -1.32 13 -2 13 C-2.05447047 11.58376784 -2.09300508 10.16691809 -2.125 8.75 C-2.14820313 7.96109375 -2.17140625 7.1721875 -2.1953125 6.359375 C-1.9828378 3.79268059 -1.28654105 2.2083933 0 0 Z " fill="#74DC9F" transform="translate(361,292)"/>
<path d="M0 0 C0.33 0 0.66 0 1 0 C1.5339744 3.08120684 2.04985551 6.16517859 2.5625 9.25 C2.71396484 10.12269531 2.86542969 10.99539062 3.02148438 11.89453125 C3.16005859 12.73886719 3.29863281 13.58320313 3.44140625 14.453125 C3.57232666 15.22817383 3.70324707 16.00322266 3.83813477 16.80175781 C4.00822774 19.11173847 3.68559092 20.80085213 3 23 C-0.21819111 15.22270481 -0.32098157 8.35740901 0 0 Z " fill="#BEEED2" transform="translate(137,225)"/>
<path d="M0 0 C1.45703125 0.98828125 1.45703125 0.98828125 3 3 C3.37674518 5.79251583 3.60191941 8.38779201 3.6875 11.1875 C3.72166016 11.93708984 3.75582031 12.68667969 3.79101562 13.45898438 C3.87334294 15.30546838 3.93835281 17.15270994 4 19 C2 17 2 17 1.8046875 14.8359375 C1.82789063 14.02382812 1.85109375 13.21171875 1.875 12.375 C1.89304687 11.55773437 1.91109375 10.74046875 1.9296875 9.8984375 C1.95289063 9.27195313 1.97609375 8.64546875 2 8 C1.34 8 0.68 8 0 8 C0 5.36 0 2.72 0 0 Z " fill="#B5ECCC" transform="translate(332,172)"/>
<path d="M0 0 C1.33332095 2.6666419 0.67102033 4.16680303 0 7 C-0.66 7 -1.32 7 -2 7 C-2.79265639 12.32212148 -3.42978066 17.6496441 -4 23 C-4.33 23 -4.66 23 -5 23 C-5.70278987 14.05114236 -4.3317004 7.85894216 0 0 Z " fill="#45D07F" transform="translate(143,163)"/>
<path d="M0 0 C0.33 0 0.66 0 1 0 C0.15867159 12.44280443 0.15867159 12.44280443 -2 17 C-2.99 17.33 -3.98 17.66 -5 18 C-3.36959185 11.98922864 -1.72852643 5.98336072 0 0 Z " fill="#B3EBCA" transform="translate(63,385)"/>
<path d="M0 0 C0.33 0.66 0.66 1.32 1 2 C1.66 2 2.32 2 3 2 C3 3.65 3 5.3 3 7 C3.66 7 4.32 7 5 7 C5.33 10.63 5.66 14.26 6 18 C5.34 17.67 4.68 17.34 4 17 C3.855625 15.948125 3.71125 14.89625 3.5625 13.8125 C2.98954679 9.92915046 1.76724509 7.45765343 0 4 C0 2.68 0 1.36 0 0 Z " fill="#78DCA2" transform="translate(422,357)"/>
<path d="M0 0 C0.99 0.33 1.98 0.66 3 1 C4 6 5 11 6 16 C3.36170741 14.68085371 3.01736771 13.76142665 2 11 C1.9222654 8.66796188 1.91032272 6.33160941 2 4 C1.34 4 0.68 4 0 4 C0 2.68 0 1.36 0 0 Z " fill="#7BDDA4" transform="translate(424,294)"/>
<path d="M0 0 C1.0789673 3.22251568 0.94905076 4.89030281 -0.375 8 C-1.48315502 10.65128677 -2.36139365 13.19514074 -3 16 C-3.66 16 -4.32 16 -5 16 C-4.67 13.03 -4.34 10.06 -4 7 C-3.34 7 -2.68 7 -2 7 C-2 5.68 -2 4.36 -2 3 C-1.34 3 -0.68 3 0 3 C0 2.01 0 1.02 0 0 Z " fill="#6FDA9B" transform="translate(52,350)"/>
<path d="M0 0 C2.05078125 0.03255208 4.1015625 0.06510417 6.15234375 0.09765625 C6.15234375 0.42765625 6.15234375 0.75765625 6.15234375 1.09765625 C4.50234375 1.09765625 2.85234375 1.09765625 1.15234375 1.09765625 C1.15234375 1.75765625 1.15234375 2.41765625 1.15234375 3.09765625 C0.57226562 3.15824219 -0.0078125 3.21882813 -0.60546875 3.28125 C-5.04858488 3.75782186 -9.44671048 4.30774291 -13.84765625 5.09765625 C-11.53555493 2.78555493 -10.42974148 2.63580736 -7.28515625 2.03515625 C-4.65724264 1.52639218 -2.43453089 0.12867499 0 0 Z " fill="#6AD998" transform="translate(224.84765625,90.90234375)"/>
<path d="M0 0 C2.76460846 1.38230423 2.99120861 2.91132229 4.125 5.75 C4.47820312 6.61109375 4.83140625 7.4721875 5.1953125 8.359375 C6.01786806 11.05863498 6.15123996 13.19701945 6 16 C2.98572283 13.50921074 2.25459259 11.18094728 1.3125 7.4375 C1.06113281 6.46683594 0.80976563 5.49617188 0.55078125 4.49609375 C0 2 0 2 0 0 Z " fill="#90E2B2" transform="translate(438,406)"/>
<path d="M0 0 C0.66 0.33 1.32 0.66 2 1 C0.7934375 2.11375 0.7934375 2.11375 -0.4375 3.25 C-2.76988591 5.75304829 -3.63534394 6.7180955 -4 10 C-4.66 10 -5.32 10 -6 10 C-6 10.99 -6 11.98 -6 13 C-6.99 13 -7.98 13 -9 13 C-8.34 11.35 -7.68 9.7 -7 8 C-6.34 8 -5.68 8 -5 8 C-4.9175 7.4225 -4.835 6.845 -4.75 6.25 C-3.79468987 3.3840696 -2.21530827 2.0009236 0 0 Z " fill="#87E0AC" transform="translate(183,137)"/>
<path d="M0 0 C0.66 0 1.32 0 2 0 C1.67 2.64 1.34 5.28 1 8 C0.34 8 -0.32 8 -1 8 C-1 9.98 -1 11.96 -1 14 C-1.66 14 -2.32 14 -3 14 C-3.33 14.66 -3.66 15.32 -4 16 C-3.33333333 12.66666667 -2.66666667 9.33333333 -2 6 C-1.34 6 -0.68 6 0 6 C0 4.02 0 2.04 0 0 Z " fill="#68D897" transform="translate(31,410)"/>
<path d="M0 0 C0.99 0.33 1.98 0.66 3 1 C0.31158141 3.25245881 -1.64641875 4.88213958 -5 6 C-5.99 7.485 -5.99 7.485 -7 9 C-9.125 9.6875 -9.125 9.6875 -11 10 C-11 9.34 -11 8.68 -11 8 C-10.34 8 -9.68 8 -9 8 C-9 7.34 -9 6.68 -9 6 C-6 4 -6 4 -3 4 C-3 3.34 -3 2.68 -3 2 C-2.01 1.34 -1.02 0.68 0 0 Z " fill="#6DD99A" transform="translate(200,123)"/>
<path d="M0 0 C7.38461538 0.49230769 7.38461538 0.49230769 10.5 3.0625 C10.995 3.701875 11.49 4.34125 12 5 C11.67 5.66 11.34 6.32 11 7 C10.113125 6.360625 9.22625 5.72125 8.3125 5.0625 C5.30788572 3.19170243 3.4489629 2.40576034 0 2 C0 1.34 0 0.68 0 0 Z " fill="#5AD58D" transform="translate(254,179)"/>
<path d="M0 0 C0.66 0 1.32 0 2 0 C2 1.32 2 2.64 2 4 C1.34 4 0.68 4 0 4 C-0.33 7.3 -0.66 10.6 -1 14 C-1.33 14 -1.66 14 -2 14 C-2.1799928 8.78020872 -1.97094808 4.92737019 0 0 Z " fill="#87E0AC" transform="translate(163,167)"/>
<path d="M0 0 C0.66 0.33 1.32 0.66 2 1 C2 3.64 2 6.28 2 9 C1.34 9 0.68 9 0 9 C-0.33 9.99 -0.66 10.98 -1 12 C-2.33332095 9.3333581 -1.67102033 7.83319697 -1 5 C-0.34 5 0.32 5 1 5 C0.67 3.35 0.34 1.7 0 0 Z " fill="#49D181" transform="translate(134,296)"/>
<path d="M0 0 C1.98146451 0.44829514 3.96014211 0.90892498 5.9375 1.375 C7.03964844 1.63023437 8.14179688 1.88546875 9.27734375 2.1484375 C10.17582031 2.42945313 11.07429687 2.71046875 12 3 C12.33 3.66 12.66 4.32 13 5 C10.03 4.67 7.06 4.34 4 4 C4 3.34 4 2.68 4 2 C2.68 2 1.36 2 0 2 C0 1.34 0 0.68 0 0 Z " fill="#87E0AC" transform="translate(225,239)"/>
<path d="M0 0 C-0.66 0 -1.32 0 -2 0 C-2 0.66 -2 1.32 -2 2 C-5.83887763 3.48320272 -8.06204091 4.22419163 -12 3 C-10.75823305 2.29773859 -9.50614401 1.61370891 -8.25 0.9375 C-7.20585937 0.36322266 -7.20585937 0.36322266 -6.140625 -0.22265625 C-3.63859372 -1.1312406 -2.4667645 -0.88336837 0 0 Z " fill="#9DE6BB" transform="translate(215,119)"/>
<path d="M0 0 C0.33 0.66 0.66 1.32 1 2 C1.66 2 2.32 2 3 2 C5.42857143 9.42857143 5.42857143 9.42857143 4 13 C4 12.01 4 11.02 4 10 C3.34 10 2.68 10 2 10 C0.68373308 6.38026598 0 3.90432869 0 0 Z " fill="#90E2B2" transform="translate(462,407)"/>
<path d="M0 0 C2.31 0 4.62 0 7 0 C7 0.66 7 1.32 7 2 C8.98 2 10.96 2 13 2 C13 2.66 13 3.32 13 4 C10.03 3.67 7.06 3.34 4 3 C4 2.34 4 1.68 4 1 C2.68 0.67 1.36 0.34 0 0 Z " fill="#8EE2B1" transform="translate(268,114)"/>
<path d="M0 0 C0.33 0 0.66 0 1 0 C1 2.31 1 4.62 1 7 C0.34 7 -0.32 7 -1 7 C-1 8.98 -1 10.96 -1 13 C-1.66 13 -2.32 13 -3 13 C-2.52060632 8.28596212 -2.03165952 4.33420699 0 0 Z " fill="#61D792" transform="translate(46,366)"/>
<path d="M0 0 C0.33 0 0.66 0 1 0 C1 1.98 1 3.96 1 6 C0.34 6 -0.32 6 -1 6 C-1 7.65 -1 9.3 -1 11 C-1.99 11.495 -1.99 11.495 -3 12 C-2.88541307 10.56163249 -2.75790884 9.12429034 -2.625 7.6875 C-2.55539063 6.88699219 -2.48578125 6.08648437 -2.4140625 5.26171875 C-2 3 -2 3 0 0 Z " fill="#6BD999" transform="translate(65,310)"/>
<path d="M0 0 C1.46911544 3.81970016 0.52561108 6.30641529 -1 10 C-1.66 10.66 -2.32 11.32 -3 12 C-2.40075776 7.80530429 -1.42500059 3.99000166 0 0 Z " fill="#56D48A" transform="translate(328,257)"/>
<path d="M0 0 C0.33 1.32 0.66 2.64 1 4 C0.34 4 -0.32 4 -1 4 C-1 4.66 -1 5.32 -1 6 C-1.66 6 -2.32 6 -3 6 C-3 6.66 -3 7.32 -3 8 C-3.99 8.33 -4.98 8.66 -6 9 C-6 8.34 -6 7.68 -6 7 C-5.34 7 -4.68 7 -4 7 C-3.896875 6.401875 -3.79375 5.80375 -3.6875 5.1875 C-2.91123545 2.71756736 -1.92911079 1.67748765 0 0 Z " fill="#A6E8C2" transform="translate(321,319)"/>
<path d="M0 0 C2 1 2 1 3.1875 3.3125 C4.03624754 6.11989571 3.99928333 7.301935 3 10 C0.96564469 6.27034861 0 4.33094958 0 0 Z " fill="#35CB74" transform="translate(445,359)"/>
<path d="M0 0 C2 1 2 1 3.1875 4.3125 C3.90649268 7.57562063 4.20286847 8.99282882 3 12 C0.97649676 8.96474514 0.67875982 7.80573798 0.375 4.3125 C0.30023438 3.50425781 0.22546875 2.69601562 0.1484375 1.86328125 C0.09945313 1.24839844 0.05046875 0.63351562 0 0 Z " fill="#53D388" transform="translate(434,324)"/>
<path d="M0 0 C1 2 1 2 0.44140625 4.1640625 C0.15136719 4.97617188 -0.13867188 5.78828125 -0.4375 6.625 C-0.72496094 7.44226563 -1.01242188 8.25953125 -1.30859375 9.1015625 C-1.53675781 9.72804687 -1.76492187 10.35453125 -2 11 C-2.33 11 -2.66 11 -3 11 C-3.32613618 6.32538149 -2.70582788 3.83325617 0 0 Z " fill="#3DCD79" transform="translate(147,152)"/>
<path d="M0 0 C0.66 0.33 1.32 0.66 2 1 C0.99806563 4.79303725 0.18975773 7.71536341 -2 11 C-2 9.02 -2 7.04 -2 5 C-1.34 5 -0.68 5 0 5 C0 3.35 0 1.7 0 0 Z " fill="#44CF7E" transform="translate(59,393)"/>
<path d="M0 0 C0.66 0 1.32 0 2 0 C2 1.65 2 3.3 2 5 C2.66 5 3.32 5 4 5 C4 6.98 4 8.96 4 11 C0.85041169 7.57653445 0.43820891 4.55737263 0 0 Z " fill="#C3F0D6" transform="translate(446,357)"/>
<path d="M0 0 C1.24546405 2.49092811 0.7767578 3.41080733 0 6 C-0.66 6 -1.32 6 -2 6 C-2 7.32 -2 8.64 -2 10 C-2.66 9.67 -3.32 9.34 -4 9 C-2.94124926 5.59687262 -1.99097846 2.98646769 0 0 Z " fill="#66D895" transform="translate(324,269)"/>
</svg>
